<svg width="19" height="26" viewBox="0 0 19 26" fill="none" xmlns="http://www.w3.org/2000/svg">
<path fill-rule="evenodd" clip-rule="evenodd" d="M15 9.5C15 12.5376 12.5376 15 9.5 15C6.46243 15 4 12.5376 4 9.5C4 6.46243 6.46243 4 9.5 4C12.5376 4 15 6.46243 15 9.5ZM13 9.5C13 11.433 11.433 13 9.5 13C7.567 13 6 11.433 6 9.5C6 7.567 7.567 6 9.5 6C11.433 6 13 7.567 13 9.5Z" fill="black"/>
<path fill-rule="evenodd" clip-rule="evenodd" d="M1.02261 13.166L6.97504 24.509C8.0183 26.497 10.9817 26.497 12.025 24.509L17.9774 13.166C21.1482 7.12359 16.5614 0 9.5 0C2.43857 0 -2.14821 7.1236 1.02261 13.166ZM8.746 23.5796L2.79358 12.2366C0.388785 7.65402 3.79543 2 9.5 2C15.2046 2 18.6112 7.65402 16.2064 12.2366L10.254 23.5796C10.1208 23.8335 9.85547 24 9.49999 24C9.14452 24 8.87922 23.8335 8.746 23.5796Z" fill="black"/>
</svg>
