<svg width="26" height="26" viewBox="0 0 26 26" fill="none" xmlns="http://www.w3.org/2000/svg">
<rect width="26" height="26" fill="#1F1F1F"/>
<path id="discovery_icon_filled" fill-rule="evenodd" clip-rule="evenodd" d="M13 26C20.1797 26 26 20.1797 26 13C26 5.8203 20.1797 0 13 0C5.8203 0 0 5.8203 0 13C0 20.1797 5.8203 26 13 26ZM9.51789 15.2163C8.82737 13.8196 8.82737 12.1809 9.51789 10.7842L12.1024 5.5568C12.4694 4.8144 13.5282 4.8144 13.8952 5.5568L16.4798 10.7842C17.1703 12.1809 17.1703 13.8196 16.4798 15.2163L13.8952 20.4437C13.5282 21.1861 12.4694 21.1861 12.1024 20.4437L9.51789 15.2163ZM14.5241 13C14.5241 13.852 13.8411 14.5427 12.9986 14.5427C12.156 14.5427 11.4731 13.852 11.4731 13C11.4731 12.1479 12.156 11.4572 12.9986 11.4572C13.8411 11.4572 14.5241 12.1479 14.5241 13Z" fill="black"/>
</svg>
