<svg width="580" height="580" viewBox="0 0 580 580" fill="none" xmlns="http://www.w3.org/2000/svg">
<path fill-rule="evenodd" clip-rule="evenodd" d="M553.996 291.437C553.999 290.959 554 290.479 554 290C554 144.197 435.803 26 290 26C144.197 26 26 144.197 26 290C26 435.803 144.197 554 290 554C430.392 554 545.189 444.414 553.516 306.115C553.837 301.665 554 297.172 554 292.64C554 292.239 553.999 291.838 553.996 291.437ZM553.996 291.437C553.349 189.929 470.861 107.84 369.2 107.84C267.138 107.84 184.4 190.578 184.4 292.64C184.4 394.702 267.138 477.44 369.2 477.44C466.731 477.44 546.615 401.886 553.516 306.115C553.809 301.257 553.97 296.363 553.996 291.437Z" fill="url(#paint0_linear_727_2531)"/>
<defs>
<linearGradient id="paint0_linear_727_2531" x1="499.089" y1="18.1152" x2="125.787" y2="432.212" gradientUnits="userSpaceOnUse">
<stop stop-color="#1E2A86"/>
<stop offset="1" stop-color="#666CAF"/>
</linearGradient>
</defs>
</svg>
