<svg width="26" height="26" viewBox="0 0 26 26" fill="none" xmlns="http://www.w3.org/2000/svg">
<path fill-rule="evenodd" clip-rule="evenodd" d="M19.016 19.5699C16.9963 21.4551 14.285 22.6087 11.3043 22.6087C5.06113 22.6087 0 17.5476 0 11.3043C0 5.06113 5.06113 0 11.3043 0C17.5476 0 22.6087 5.06113 22.6087 11.3043C22.6087 13.7728 21.8175 16.0564 20.4749 17.9155L25.741 24.1846C25.9081 24.3836 25.9998 24.6352 25.9998 24.8952V24.9204C25.9998 25.5166 25.5165 26 24.9202 26C24.6013 26 24.2987 25.859 24.0936 25.6148L19.016 19.5699ZM18.2035 17.5473C16.501 19.4275 14.0406 20.6087 11.3043 20.6087C6.1657 20.6087 2 16.443 2 11.3043C2 6.1657 6.1657 2 11.3043 2C16.443 2 20.6087 6.1657 20.6087 11.3043C20.6087 13.5233 19.8319 15.5608 18.5355 17.1599C18.3962 17.2603 18.2819 17.3931 18.2035 17.5473Z" fill="black"/>
</svg>
