<svg width="25" height="26" viewBox="0 0 25 26" fill="none" xmlns="http://www.w3.org/2000/svg">
<path fill-rule="evenodd" clip-rule="evenodd" d="M15.7561 2.75422C15.3595 -0.918076 9.64047 -0.918074 9.24385 2.75423C9.0192 4.83423 6.68216 6.09668 4.64459 5.2387C1.0472 3.72393 -1.81233 8.358 1.38844 10.5155C3.20137 11.7376 3.20137 14.2624 1.38844 15.4845C-1.81233 17.642 1.04719 22.2761 4.64458 20.7613C6.68216 19.9033 9.0192 21.1658 9.24385 23.2458C9.64047 26.9181 15.3595 26.9181 15.7561 23.2458C15.9808 21.1658 18.3178 19.9033 20.3554 20.7613C23.9528 22.2761 26.8123 17.642 23.6116 15.4845C21.7986 14.2624 21.7986 11.7376 23.6116 10.5155C26.8123 8.35799 23.9528 3.72393 20.3554 5.2387C18.3178 6.09668 15.9808 4.83423 15.7561 2.75422ZM12.5 17.7895C15.1847 17.7895 17.3611 15.6452 17.3611 13C17.3611 10.3548 15.1847 8.21053 12.5 8.21053C9.81528 8.21053 7.63889 10.3548 7.63889 13C7.63889 15.6452 9.81528 17.7895 12.5 17.7895Z" fill="black"/>
</svg>
