<svg width="30" height="30" viewBox="0 0 30 30" fill="none" xmlns="http://www.w3.org/2000/svg">
<mask id="mask0_94_524" style="mask-type:alpha" maskUnits="userSpaceOnUse" x="0" y="0" width="30" height="30">
<rect width="30" height="30" fill="#D9D9D9"/>
</mask>
<g mask="url(#mask0_94_524)">
<path d="M10.667 14.6417C10.0347 13.7363 9.48141 12.7732 9.00703 11.7523C8.71057 12.2523 8.49464 12.7736 8.35922 13.3161C8.2238 13.8584 8.15609 14.4196 8.15609 14.9998C8.15609 16.9028 8.82099 18.5191 10.1508 19.8489C11.4806 21.1787 13.0969 21.8436 14.9998 21.8436C15.564 21.8436 16.1253 21.7707 16.6836 21.6248C17.2421 21.479 17.7634 21.2683 18.2473 20.9927C17.2265 20.5183 16.2634 19.9649 15.358 19.3327C14.4526 18.7006 13.6024 17.987 12.8077 17.192C12.0127 16.3972 11.2991 15.5471 10.667 14.6417ZM16.9733 18.9098C18.1737 19.6461 19.4518 20.2386 20.8077 20.6873C20.0543 21.4613 19.1777 22.0611 18.1777 22.4867C17.1777 22.9121 16.1288 23.1248 15.0311 23.1248C12.7678 23.1248 10.8478 22.3365 9.27109 20.7598C7.69443 19.1832 6.90609 17.2632 6.90609 14.9998C6.90609 13.9021 7.1188 12.8533 7.54422 11.8533C7.96984 10.8533 8.56964 9.97662 9.34359 9.22328C9.79234 10.5791 10.3848 11.8572 11.1211 13.0577C11.8576 14.2579 12.7169 15.3492 13.6992 16.3317C14.6817 17.314 15.7731 18.1734 16.9733 18.9098ZM22.5455 18.1008C22.3353 18.0437 22.1277 17.981 21.9227 17.9127C21.7177 17.8441 21.5134 17.7746 21.3098 17.7042C21.4926 17.2811 21.6324 16.8408 21.7295 16.3833C21.8264 15.9258 21.8748 15.4676 21.8748 15.0086C21.8748 13.104 21.2037 11.4806 19.8614 10.1383C18.5191 8.79599 16.8957 8.12484 14.9911 8.12484C14.5321 8.12484 14.0739 8.16932 13.6164 8.25828C13.1589 8.34724 12.7186 8.48307 12.2955 8.66578C12.2251 8.46224 12.1601 8.26495 12.1005 8.07391C12.0411 7.88266 11.9843 7.68651 11.9302 7.48547C12.4141 7.28193 12.9165 7.12922 13.4373 7.02734C13.9582 6.92568 14.4894 6.87484 15.0311 6.87484C17.2944 6.87484 19.2144 7.66318 20.7911 9.23984C22.3678 10.8165 23.1561 12.7365 23.1561 14.9998C23.1561 15.5415 23.1053 16.0728 23.0036 16.5936C22.9017 17.1144 22.749 17.6168 22.5455 18.1008ZM14.3748 4.08641V1.10547H15.6248V4.08641H14.3748ZM14.3748 28.8942V25.9133H15.6248V28.8942H14.3748ZM23.1705 7.72109L22.2786 6.82922L24.3339 4.78109L25.2258 5.66578L23.1705 7.72109ZM5.66578 25.2186L4.77391 24.3339L6.82922 22.2786L7.72109 23.1705L5.66578 25.2186ZM25.9133 15.6248V14.3748H28.8942V15.6248H25.9133ZM1.10547 15.6248V14.3748H4.08641V15.6248H1.10547ZM24.3339 25.2258L22.2786 23.1705L23.1705 22.2786L25.2186 24.3339L24.3339 25.2258ZM6.82922 7.72109L4.78109 5.66578L5.66578 4.77391L7.72109 6.82922L6.82922 7.72109Z" fill="black"/>
</g>
</svg>
