<svg width="30" height="30" viewBox="0 0 30 30" fill="none" xmlns="http://www.w3.org/2000/svg">
<mask id="mask0_48_268" style="mask-type:alpha" maskUnits="userSpaceOnUse" x="0" y="0" width="30" height="30">
<rect width="30" height="30" fill="#D9D9D9"/>
</mask>
<g mask="url(#mask0_48_268)">
<path d="M7.97859 24.5201C7.48589 24.5201 6.99849 24.4351 6.51641 24.2651C6.03453 24.0953 5.60849 23.8598 5.23828 23.5585C5.65182 23.286 6.00359 22.9202 6.29359 22.461C6.58359 22.0019 6.72859 21.4382 6.72859 20.7701C6.72859 20.0649 6.96901 19.4718 7.44984 18.991C7.93068 18.5104 8.52359 18.2701 9.22859 18.2701C9.9338 18.2701 10.5268 18.5104 11.0077 18.991C11.4883 19.4718 11.7286 20.0649 11.7286 20.7701C11.7286 21.8013 11.3614 22.6841 10.627 23.4185C9.89266 24.1529 9.00984 24.5201 7.97859 24.5201ZM7.97859 23.2701C8.66609 23.2701 9.25464 23.0253 9.74422 22.5357C10.2338 22.0461 10.4786 21.4576 10.4786 20.7701C10.4786 20.4159 10.3588 20.119 10.1192 19.8795C9.87964 19.6399 9.58276 19.5201 9.22859 19.5201C8.87443 19.5201 8.57755 19.6399 8.33797 19.8795C8.09839 20.119 7.97859 20.4159 7.97859 20.7701C7.97859 21.2492 7.9213 21.6867 7.80672 22.0826C7.69214 22.4784 7.54109 22.8534 7.35359 23.2076C7.45776 23.2492 7.56193 23.2701 7.66609 23.2701H7.97859ZM14.0605 18.1257L11.9211 15.9863L22.147 5.76039C22.3762 5.53122 22.6627 5.41143 23.0064 5.40102C23.3502 5.3906 23.647 5.51039 23.897 5.76039L24.2864 6.14977C24.5364 6.39977 24.6614 6.69143 24.6614 7.02477C24.6614 7.3581 24.5364 7.64977 24.2864 7.89977L14.0605 18.1257Z" fill="black"/>
</g>
</svg>
