<svg width="30" height="30" viewBox="0 0 30 30" fill="none" xmlns="http://www.w3.org/2000/svg">
<mask id="mask0_94_522" style="mask-type:alpha" maskUnits="userSpaceOnUse" x="0" y="0" width="30" height="30">
<rect width="30" height="30" fill="#D9D9D9"/>
</mask>
<g mask="url(#mask0_94_522)">
<path d="M15.0742 24.9988C12.2963 24.9988 9.93516 24.0266 7.99078 22.0823C6.04641 20.1377 5.07422 17.7765 5.07422 14.9988C5.07422 12.4667 5.89953 10.2712 7.55016 8.41227C9.20078 6.55331 11.244 5.4556 13.6798 5.11914C13.7471 5.11914 13.8133 5.12154 13.8783 5.12633C13.9431 5.13112 14.0067 5.13831 14.0692 5.14789C13.6478 5.73602 13.3141 6.39029 13.0683 7.1107C12.8222 7.83091 12.6992 8.58529 12.6992 9.37383C12.6992 11.5961 13.4769 13.485 15.0323 15.0404C16.588 16.596 18.4769 17.3738 20.6992 17.3738C21.4923 17.3738 22.248 17.2508 22.9661 17.0048C23.684 16.7587 24.329 16.425 24.9011 16.0035C24.9107 16.066 24.9179 16.1298 24.9227 16.1948C24.9274 16.2596 24.9298 16.3257 24.9298 16.3932C24.6094 18.829 23.5197 20.8723 21.6608 22.5229C19.8018 24.1735 17.6063 24.9988 15.0742 24.9988ZM15.0742 23.7488C16.9076 23.7488 18.5534 23.2436 20.0117 22.2332C21.4701 21.2228 22.5326 19.9051 23.1992 18.2801C22.7826 18.3842 22.3659 18.4676 21.9492 18.5301C21.5326 18.5926 21.1159 18.6238 20.6992 18.6238C18.1367 18.6238 15.9544 17.7228 14.1523 15.9207C12.3503 14.1186 11.4492 11.9363 11.4492 9.37383C11.4492 8.95716 11.4805 8.5405 11.543 8.12383C11.6055 7.70716 11.6888 7.2905 11.793 6.87383C10.168 7.5405 8.85026 8.603 7.83984 10.0613C6.82943 11.5197 6.32422 13.1655 6.32422 14.9988C6.32422 17.4155 7.17839 19.478 8.88672 21.1863C10.5951 22.8947 12.6576 23.7488 15.0742 23.7488Z" fill="black"/>
</g>
</svg>
