<svg width="30" height="30" viewBox="0 0 30 30" fill="none" xmlns="http://www.w3.org/2000/svg">
<mask id="mask0_78_787" style="mask-type:alpha" maskUnits="userSpaceOnUse" x="0" y="0" width="30" height="30">
<rect width="30" height="30" fill="#D9D9D9"/>
</mask>
<g mask="url(#mask0_78_787)">
<path d="M6.25016 25.0005C5.91516 25.0005 5.62307 24.8759 5.37391 24.6267C5.12474 24.3776 5.00016 24.0855 5.00016 23.7505V18.8083C5.71161 18.5999 6.3062 18.2061 6.78391 17.6267C7.26141 17.0473 7.50016 16.3803 7.50016 15.6255C7.50016 14.8707 7.26141 14.2036 6.78391 13.6242C6.3062 13.0448 5.71161 12.651 5.00016 12.4427V7.26016C5.00016 7.08286 5.0313 6.91859 5.09359 6.76734C5.15589 6.61609 5.24411 6.48307 5.35828 6.36828L6.25016 7.26016V11.5967C7.02266 11.9653 7.63245 12.5149 8.07953 13.2458C8.52662 13.9764 8.75016 14.7721 8.75016 15.633C8.75016 16.479 8.52662 17.2673 8.07953 17.998C7.63245 18.7288 7.02266 19.2809 6.25016 19.6542V23.7505H10.3223C10.7117 22.978 11.2718 22.3682 12.0027 21.9211C12.7333 21.474 13.5241 21.2505 14.3752 21.2505C15.2262 21.2505 16.017 21.474 16.7477 21.9211C17.4785 22.3682 18.0386 22.978 18.428 23.7505H22.7405L23.6323 24.6423C23.5176 24.7565 23.3845 24.8447 23.2333 24.907C23.082 24.9693 22.9178 25.0005 22.7405 25.0005H17.558C17.3496 24.289 16.9558 23.6944 16.3764 23.2167C15.797 22.7392 15.1299 22.5005 14.3752 22.5005C13.6204 22.5005 12.9533 22.7392 12.3739 23.2167C11.7945 23.6944 11.4007 24.289 11.1923 25.0005H6.25016ZM23.7502 20.2361L22.5002 18.9873V17.6448H23.077C23.5962 17.5646 24.0224 17.3379 24.3558 16.9645C24.6891 16.591 24.8558 16.1446 24.8558 15.6255C24.8558 15.1063 24.6891 14.6599 24.3558 14.2864C24.0224 13.9131 23.5962 13.6863 23.077 13.6061H22.5002V7.50047H16.3945V6.92359C16.3143 6.40443 16.0876 5.97818 15.7142 5.64484C15.3407 5.31151 14.8943 5.14484 14.3752 5.14484C13.856 5.14484 13.4096 5.31151 13.0361 5.64484C12.6628 5.97818 12.436 6.40443 12.3558 6.92359V7.50047H11.0133L9.76453 6.25047H11.2502C11.4745 5.53568 11.8688 4.96432 12.433 4.53641C12.9969 4.10849 13.6443 3.89453 14.3752 3.89453C15.106 3.89453 15.7534 4.10849 16.3173 4.53641C16.8815 4.96432 17.2758 5.53568 17.5002 6.25047H22.5002C22.8439 6.25047 23.1382 6.37287 23.383 6.61766C23.6278 6.86245 23.7502 7.15672 23.7502 7.50047V12.5005C24.4649 12.7248 25.0363 13.1191 25.4642 13.6833C25.8921 14.2472 26.1061 14.8946 26.1061 15.6255C26.1061 16.3563 25.8921 17.0037 25.4642 17.5677C25.0363 18.1318 24.4649 18.5261 23.7502 18.7505V20.2361ZM24.7911 26.5748L3.42578 5.20953L4.31734 4.31766L25.683 25.6833L24.7911 26.5748Z" fill="black"/>
</g>
</svg>
