<svg width="30" height="30" viewBox="0 0 30 30" fill="none" xmlns="http://www.w3.org/2000/svg">
<mask id="mask0_91_465" style="mask-type:alpha" maskUnits="userSpaceOnUse" x="0" y="0" width="30" height="30">
<rect width="30" height="30" fill="#D9D9D9"/>
</mask>
<g mask="url(#mask0_91_465)">
<path d="M15.0013 22.5C17.7929 22.5 20.1575 21.526 22.095 19.5781C24.0325 17.6302 25.0013 15.2708 25.0013 12.5C25.0013 11.694 24.9131 10.9259 24.7369 10.1959C24.5606 9.46594 24.3098 8.77958 23.9844 8.13688C23.486 8.45917 22.9524 8.70604 22.3834 8.8775C21.8145 9.04896 21.2288 9.13469 20.6263 9.13469C19.4371 9.13469 18.3438 8.83135 17.3463 8.22469C16.3485 7.61823 15.5669 6.7901 15.0013 5.74031C14.4517 6.7901 13.6741 7.61823 12.6684 8.22469C11.6628 8.83135 10.5654 9.13469 9.37625 9.13469C8.77375 9.13469 8.19198 9.04896 7.63094 8.8775C7.0701 8.70604 6.54052 8.46719 6.04219 8.16094C5.71677 8.81969 5.46198 9.51406 5.27781 10.2441C5.09344 10.9741 5.00125 11.726 5.00125 12.5C5.00125 15.2708 5.97521 17.6302 7.92313 19.5781C9.87104 21.526 12.2304 22.5 15.0013 22.5ZM12.3606 14.8594C12.6627 14.5573 12.8138 14.1875 12.8138 13.75C12.8138 13.3125 12.6627 12.9427 12.3606 12.6406C12.0585 12.3385 11.6888 12.1875 11.2513 12.1875C10.8138 12.1875 10.444 12.3385 10.1419 12.6406C9.83979 12.9427 9.68875 13.3125 9.68875 13.75C9.68875 14.1875 9.83979 14.5573 10.1419 14.8594C10.444 15.1615 10.8138 15.3125 11.2513 15.3125C11.6888 15.3125 12.0585 15.1615 12.3606 14.8594ZM19.8606 14.8594C20.1627 14.5573 20.3138 14.1875 20.3138 13.75C20.3138 13.3125 20.1627 12.9427 19.8606 12.6406C19.5585 12.3385 19.1888 12.1875 18.7513 12.1875C18.3138 12.1875 17.944 12.3385 17.6419 12.6406C17.3398 12.9427 17.1888 13.3125 17.1888 13.75C17.1888 14.1875 17.3398 14.5573 17.6419 14.8594C17.944 15.1615 18.3138 15.3125 18.7513 15.3125C19.1888 15.3125 19.5585 15.1615 19.8606 14.8594ZM9.37625 7.88469C10.7608 7.88469 11.9403 7.3975 12.9147 6.42312C13.8891 5.44875 14.3763 4.26927 14.3763 2.88469V2.51438C12.7833 2.61688 11.313 3.07687 9.96531 3.89437C8.6174 4.71167 7.51563 5.76292 6.66 7.04812C7.06708 7.31417 7.49896 7.5201 7.95563 7.66594C8.41229 7.81177 8.88583 7.88469 9.37625 7.88469ZM20.6263 7.88469C21.1167 7.88469 21.5943 7.80896 22.0591 7.6575C22.5236 7.50604 22.9595 7.2949 23.3666 7.02406C22.5268 5.7549 21.4343 4.73167 20.0891 3.95437C18.7436 3.17708 17.256 2.7051 15.6263 2.53844V2.88469C15.6263 4.26927 16.1134 5.44875 17.0878 6.42312C18.0622 7.3975 19.2417 7.88469 20.6263 7.88469ZM4.07344 26.25C3.48844 26.25 2.99406 26.0312 2.59031 25.5938C2.18635 25.1562 2.0076 24.645 2.05406 24.06L3.10688 12.5578C3.25771 10.9841 3.6676 9.50885 4.33656 8.13219C5.00573 6.75552 5.86948 5.55802 6.92781 4.53969C7.98635 3.52115 9.20594 2.71823 10.5866 2.13094C11.9672 1.54365 13.4388 1.25 15.0013 1.25C16.5638 1.25 18.0353 1.54365 19.4159 2.13094C20.7966 2.71823 22.0161 3.52115 23.0747 4.53969C24.133 5.55802 24.9968 6.75552 25.6659 8.13219C26.3349 9.50885 26.7448 10.9841 26.8956 12.5578L27.9484 24.06C27.9949 24.645 27.8161 25.1562 27.4122 25.5938C27.0084 26.0312 26.5141 26.25 25.9291 26.25H4.07344ZM15.0013 23.75C12.349 23.75 10.0172 22.9339 8.00594 21.3016C5.9949 19.6695 4.69688 17.6219 4.11188 15.1587L3.30406 24.1588C3.27198 24.3831 3.33615 24.5794 3.49656 24.7475C3.65677 24.9158 3.84906 25 4.07344 25H25.9291C26.1534 25 26.3457 24.9158 26.5059 24.7475C26.6664 24.5794 26.7305 24.3831 26.6984 24.1588L25.8906 15.1828C25.3056 17.6459 24.0088 19.6896 22 21.3138C19.9913 22.9379 17.6583 23.75 15.0013 23.75Z" fill="black"/>
</g>
</svg>
