<svg width="30" height="30" viewBox="0 0 30 30" fill="none" xmlns="http://www.w3.org/2000/svg">
<mask id="mask0_91_466" style="mask-type:alpha" maskUnits="userSpaceOnUse" x="0" y="0" width="30" height="30">
<rect width="30" height="30" fill="#D9D9D9"/>
</mask>
<g mask="url(#mask0_91_466)">
<path d="M13.5991 27.3944C13.112 27.3238 12.5247 27.2123 11.8372 27.06C10.2924 28.3342 8.5252 28.8467 6.53562 28.5975C4.54604 28.3481 3.08 27.4126 2.1375 25.7909C1.32833 24.4255 1.08239 22.9655 1.39968 21.4109C1.71697 19.8566 2.51104 18.5553 3.78187 17.5072C3.76583 17.3261 3.75781 17.1182 3.75781 16.8834V16.2597C2.56239 15.2966 1.80041 14.0293 1.47187 12.4578C1.14333 10.8866 1.34687 9.45031 2.0825 8.14906C2.82125 6.88469 3.87166 6.0101 5.23375 5.52531C6.59604 5.04052 7.97906 5.00646 9.38281 5.42312C9.76093 4.1875 10.4641 3.18312 11.4922 2.41C12.5203 1.63667 13.6898 1.25 15.0006 1.25C16.3115 1.25 17.4809 1.63667 18.5091 2.41C19.5372 3.18312 20.2403 4.1875 20.6184 5.42312C22.0222 5.00646 23.4092 5.04052 24.7794 5.52531C26.1496 6.0101 27.196 6.88469 27.9187 8.14906C28.6544 9.43427 28.8579 10.8625 28.5294 12.4338C28.2008 14.0052 27.4389 15.2805 26.2434 16.2597V16.8834C26.2434 17.1182 26.2354 17.3261 26.2194 17.5072C27.4902 18.5553 28.2843 19.8526 28.6016 21.3991C28.9188 22.9455 28.6729 24.4095 27.8637 25.7909C26.9212 27.4126 25.4552 28.3481 23.4656 28.5975C21.476 28.8467 19.7088 28.3342 18.1641 27.06C17.4766 27.2123 16.8893 27.3238 16.4022 27.3944C15.9149 27.4648 15.4477 27.5 15.0006 27.5C14.5535 27.5 14.0864 27.4648 13.5991 27.3944ZM10.3469 26.4663C9.58395 26.1073 8.86437 25.6791 8.18812 25.1816C7.51187 24.6839 6.9077 24.1114 6.37562 23.4641C5.84354 22.8166 5.38479 22.1222 4.99937 21.3809C4.61395 20.6399 4.31229 19.8567 4.09437 19.0312C3.26104 19.8615 2.76427 20.8426 2.60406 21.9747C2.44385 23.107 2.64656 24.1659 3.21218 25.1516C3.89656 26.3118 4.95781 27.0253 6.39593 27.2922C7.83427 27.5589 9.15125 27.2835 10.3469 26.4663ZM19.6544 26.4663C20.85 27.2835 22.167 27.5589 23.6053 27.2922C25.0434 27.0253 26.1047 26.3118 26.7891 25.1516C27.3547 24.1659 27.5574 23.107 27.3972 21.9747C27.237 20.8426 26.7402 19.8615 25.9069 19.0312C25.705 19.8567 25.4073 20.6399 25.0137 21.3809C24.6204 22.1222 24.1577 22.8166 23.6256 23.4641C23.0935 24.1114 22.4946 24.6839 21.8287 25.1816C21.1629 25.6791 20.4381 26.1073 19.6544 26.4663ZM15.0006 26.25C17.7923 26.25 20.1569 25.2813 22.0944 23.3438C24.0319 21.4063 25.0006 19.0417 25.0006 16.25C25.0006 15.5496 24.9337 14.8713 24.8 14.215C24.666 13.5588 24.4653 12.9302 24.1978 12.3294C23.6405 12.7308 23.0256 13.0419 22.3531 13.2625C21.6806 13.4833 20.9485 13.5938 20.1569 13.5938C18.2054 13.5938 16.5456 12.9098 15.1775 11.5419C13.8096 10.1738 13.1256 8.51396 13.1256 6.5625V6.41813C10.7987 6.86375 8.86281 8.0024 7.31781 9.83406C5.77302 11.6659 5.00062 13.8046 5.00062 16.25C5.00062 19.0417 5.96937 21.4063 7.90687 23.3438C9.84437 25.2813 12.209 26.25 15.0006 26.25ZM10.1412 18.6094C9.83916 18.3073 9.68812 17.9375 9.68812 17.5C9.68812 17.0625 9.83916 16.6927 10.1412 16.3906C10.4433 16.0885 10.8131 15.9375 11.2506 15.9375C11.6881 15.9375 12.0579 16.0885 12.36 16.3906C12.6621 16.6927 12.8131 17.0625 12.8131 17.5C12.8131 17.9375 12.6621 18.3073 12.36 18.6094C12.0579 18.9115 11.6881 19.0625 11.2506 19.0625C10.8131 19.0625 10.4433 18.9115 10.1412 18.6094ZM17.6412 18.6094C17.3392 18.3073 17.1881 17.9375 17.1881 17.5C17.1881 17.0625 17.3392 16.6927 17.6412 16.3906C17.9433 16.0885 18.3131 15.9375 18.7506 15.9375C19.1881 15.9375 19.5579 16.0885 19.86 16.3906C20.1621 16.6927 20.3131 17.0625 20.3131 17.5C20.3131 17.9375 20.1621 18.3073 19.86 18.6094C19.5579 18.9115 19.1881 19.0625 18.7506 19.0625C18.3131 19.0625 17.9433 18.9115 17.6412 18.6094ZM3.92375 14.4663C4.04708 13.6506 4.25458 12.869 4.54625 12.1213C4.83791 11.3738 5.20573 10.6706 5.64968 10.0119C6.09364 9.35333 6.60604 8.73802 7.18687 8.16594C7.76791 7.59385 8.40937 7.09948 9.11125 6.68281C7.99104 6.31406 6.87041 6.30844 5.74937 6.66594C4.62833 7.02323 3.76656 7.72354 3.16406 8.76687C2.65135 9.64187 2.47427 10.6243 2.63281 11.7141C2.79156 12.8036 3.22187 13.721 3.92375 14.4663ZM26.0775 14.4663C26.7954 13.721 27.2297 12.8036 27.3803 11.7141C27.5309 10.6243 27.3499 9.64187 26.8372 8.76687C26.2347 7.72354 25.3729 7.01917 24.2519 6.65375C23.1308 6.28833 22.0102 6.29802 20.89 6.68281C21.5919 7.09948 22.2333 7.59385 22.8144 8.16594C23.3952 8.73802 23.9076 9.35333 24.3516 10.0119C24.7955 10.6706 25.1633 11.3738 25.455 12.1213C25.7467 12.869 25.9542 13.6506 26.0775 14.4663ZM20.1569 12.3438C20.8573 12.3438 21.4959 12.246 22.0728 12.0506C22.6497 11.855 23.1729 11.5825 23.6425 11.2331C23.221 10.4704 22.7042 9.78729 22.0919 9.18375C21.4798 8.58042 20.8035 8.05687 20.0631 7.61312C19.3227 7.16917 18.5283 6.83094 17.68 6.59844C16.8315 6.36615 15.9383 6.25 15.0006 6.25C14.8885 6.25958 14.7844 6.27156 14.6881 6.28594C14.5919 6.30052 14.4877 6.32063 14.3756 6.34625V6.5625C14.3756 8.16021 14.9397 9.52323 16.0678 10.6516C17.1961 11.7797 18.5592 12.3438 20.1569 12.3438ZM19.3106 5.88469C19.0383 4.89427 18.5079 4.0825 17.7194 3.44938C16.9308 2.81646 16.0246 2.5 15.0006 2.5C13.9767 2.5 13.0784 2.8125 12.3059 3.4375C11.5334 4.0625 11.043 4.85417 10.8347 5.8125C11.4726 5.54958 12.144 5.34844 12.8487 5.20906C13.5533 5.06969 14.2706 5 15.0006 5C15.7579 5 16.5021 5.07375 17.2331 5.22125C17.9644 5.36854 18.6569 5.58969 19.3106 5.88469Z" fill="black"/>
</g>
</svg>
