<svg width="30" height="30" viewBox="0 0 30 30" fill="none" xmlns="http://www.w3.org/2000/svg">
<mask id="mask0_48_266" style="mask-type:alpha" maskUnits="userSpaceOnUse" x="0" y="0" width="30" height="30">
<rect width="30" height="30" fill="#D9D9D9"/>
</mask>
<g mask="url(#mask0_48_266)">
<path d="M14.9525 25C12.4142 25 10.2015 24.171 8.31438 22.5131C6.42729 20.8554 5.33552 18.7677 5.03906 16.25H6.30344C6.64323 18.4006 7.62281 20.1883 9.24219 21.6131C10.8616 23.0377 12.765 23.75 14.9525 23.75C17.39 23.75 19.4577 22.901 21.1556 21.2031C22.8535 19.5052 23.7025 17.4375 23.7025 15C23.7025 12.5625 22.8535 10.4948 21.1556 8.79688C19.4577 7.09896 17.39 6.25 14.9525 6.25C13.6592 6.25 12.4436 6.52323 11.3059 7.06969C10.168 7.61615 9.16396 8.36854 8.29375 9.32688H11.395V10.5769H6.2025V5.38469H7.4525V8.37031C8.41896 7.30927 9.55156 6.48229 10.8503 5.88938C12.1493 5.29646 13.5167 5 14.9525 5C16.3387 5 17.638 5.26083 18.8503 5.7825C20.0626 6.30417 21.1219 7.01813 22.0281 7.92438C22.9344 8.83063 23.6483 9.8899 24.17 11.1022C24.6917 12.3145 24.9525 13.6137 24.9525 15C24.9525 16.3863 24.6917 17.6855 24.17 18.8978C23.6483 20.1101 22.9344 21.1694 22.0281 22.0756C21.1219 22.9819 20.0626 23.6958 18.8503 24.2175C17.638 24.7392 16.3387 25 14.9525 25ZM18.9575 19.8172L14.3997 15.2597V8.75H15.6497V14.7403L19.8419 18.9328L18.9575 19.8172Z" fill="black"/>
</g>
</svg>
