<svg width="30" height="30" viewBox="0 0 30 30" fill="none" xmlns="http://www.w3.org/2000/svg">
<mask id="mask0_94_457" style="mask-type:alpha" maskUnits="userSpaceOnUse" x="0" y="0" width="30" height="30">
<rect width="30" height="30" fill="#D9D9D9"/>
</mask>
<g mask="url(#mask0_94_457)">
<path d="M10.625 25.3619C9.25646 24.7696 8.06458 23.9658 7.04938 22.9506C6.03417 21.9354 5.23042 20.7435 4.63812 19.375C4.04604 18.0065 3.75 16.5469 3.75 14.9963C3.75 13.4458 4.04604 11.9875 4.63812 10.6213C5.23042 9.25521 6.03417 8.06458 7.04938 7.04938C8.06458 6.03417 9.25646 5.23042 10.625 4.63812C11.9935 4.04604 13.4531 3.75 15.0037 3.75C16.5542 3.75 18.0125 4.04604 19.3787 4.63812C20.7448 5.23042 21.9354 6.03417 22.9506 7.04938C23.9658 8.06458 24.7696 9.25521 25.3619 10.6213C25.954 11.9875 26.25 13.4458 26.25 14.9963C26.25 16.5469 25.954 18.0065 25.3619 19.375C24.7696 20.7435 23.9658 21.9354 22.9506 22.9506C21.9354 23.9658 20.7448 24.7696 19.3787 25.3619C18.0125 25.954 16.5542 26.25 15.0037 26.25C13.4531 26.25 11.9935 25.954 10.625 25.3619ZM15 25.0097C15.734 24.0674 16.339 23.1419 16.815 22.2331C17.2908 21.3246 17.6778 20.3078 17.9759 19.1828H12.0241C12.3543 20.3718 12.7493 21.4206 13.2091 22.3294C13.6691 23.2379 14.266 24.1314 15 25.0097ZM13.4087 24.8222C12.8254 24.1347 12.2929 23.2849 11.8112 22.2728C11.3298 21.2607 10.9713 20.2307 10.7356 19.1828H5.94219C6.65865 20.7372 7.67427 22.012 8.98906 23.0072C10.3041 24.0024 11.7773 24.6074 13.4087 24.8222ZM16.5912 24.8222C18.2227 24.6074 19.6959 24.0024 21.0109 23.0072C22.3257 22.012 23.3414 20.7372 24.0578 19.1828H19.2644C18.9488 20.2468 18.5501 21.2848 18.0684 22.2969C17.587 23.309 17.0946 24.1507 16.5912 24.8222ZM5.43281 17.9328H10.4759C10.3814 17.4199 10.3145 16.9202 10.2753 16.4338C10.2359 15.9475 10.2163 15.4696 10.2163 15C10.2163 14.5304 10.2359 14.0525 10.2753 13.5662C10.3145 13.0798 10.3814 12.5801 10.4759 12.0672H5.43281C5.29656 12.4999 5.19031 12.9715 5.11406 13.4819C5.03802 13.9923 5 14.4983 5 15C5 15.5017 5.03802 16.0077 5.11406 16.5181C5.19031 17.0285 5.29656 17.5001 5.43281 17.9328ZM11.7259 17.9328H18.2741C18.3686 17.4199 18.4355 16.9282 18.4747 16.4578C18.5141 15.9876 18.5338 15.5017 18.5338 15C18.5338 14.4983 18.5141 14.0124 18.4747 13.5422C18.4355 13.0718 18.3686 12.5801 18.2741 12.0672H11.7259C11.6314 12.5801 11.5645 13.0718 11.5253 13.5422C11.4859 14.0124 11.4663 14.4983 11.4663 15C11.4663 15.5017 11.4859 15.9876 11.5253 16.4578C11.5645 16.9282 11.6314 17.4199 11.7259 17.9328ZM19.5241 17.9328H24.5672C24.7034 17.5001 24.8097 17.0285 24.8859 16.5181C24.962 16.0077 25 15.5017 25 15C25 14.4983 24.962 13.9923 24.8859 13.4819C24.8097 12.9715 24.7034 12.4999 24.5672 12.0672H19.5241C19.6186 12.5801 19.6855 13.0798 19.7247 13.5662C19.7641 14.0525 19.7838 14.5304 19.7838 15C19.7838 15.4696 19.7641 15.9475 19.7247 16.4338C19.6855 16.9202 19.6186 17.4199 19.5241 17.9328ZM19.2644 10.8172H24.0578C23.3253 9.23073 22.3217 7.95594 21.0469 6.99281C19.7721 6.02969 18.2869 5.41667 16.5912 5.15375C17.1746 5.92146 17.6991 6.79927 18.1647 7.78719C18.6303 8.77531 18.9969 9.78531 19.2644 10.8172ZM12.0241 10.8172H17.9759C17.6457 9.64427 17.2386 8.58344 16.7547 7.63469C16.2707 6.68594 15.6858 5.80448 15 4.99031C14.3142 5.80448 13.7293 6.68594 13.2453 7.63469C12.7614 8.58344 12.3543 9.64427 12.0241 10.8172ZM5.94219 10.8172H10.7356C11.0031 9.78531 11.3697 8.77531 11.8353 7.78719C12.3009 6.79927 12.8254 5.92146 13.4087 5.15375C11.6971 5.41667 10.2079 6.03365 8.94125 7.00469C7.67437 7.97594 6.67469 9.24677 5.94219 10.8172Z" fill="black"/>
</g>
</svg>
