<svg width="30" height="30" viewBox="0 0 30 30" fill="none" xmlns="http://www.w3.org/2000/svg">
<mask id="mask0_736_32524" style="mask-type:alpha" maskUnits="userSpaceOnUse" x="0" y="0" width="30" height="30">
<rect width="30" height="30" fill="#D9D9D9"/>
</mask>
<g mask="url(#mask0_736_32524)">
<path d="M6.875 21.25C5.1325 21.25 3.65521 20.6442 2.44313 19.4325C1.23104 18.2208 0.625 16.7441 0.625 15.0022C0.625 13.2603 1.23104 11.7828 2.44313 10.5697C3.65521 9.35656 5.1325 8.75 6.875 8.75C7.56104 8.75 8.21938 8.87344 8.85 9.12031C9.48042 9.36698 10.0528 9.71625 10.5672 10.1681L13.2212 12.4422L12.2597 13.2644L9.74531 11.0819C9.34781 10.7452 8.90063 10.4807 8.40375 10.2884C7.90708 10.0961 7.39688 10 6.87313 10C5.49271 10 4.31458 10.4884 3.33875 11.4653C2.36292 12.4424 1.875 13.6219 1.875 15.0037C1.875 16.3858 2.36292 17.5641 3.33875 18.5384C4.31458 19.5128 5.49271 20 6.87313 20C7.39688 20 7.90708 19.9039 8.40375 19.7116C8.90063 19.5193 9.34781 19.2548 9.74531 18.9181L19.4328 10.1681C19.9311 9.70021 20.4981 9.34688 21.1338 9.10813C21.7694 8.86938 22.4331 8.75 23.125 8.75C24.8675 8.75 26.3448 9.35583 27.5569 10.5675C28.769 11.7792 29.375 13.2559 29.375 14.9978C29.375 16.7397 28.769 18.2172 27.5569 19.4303C26.3448 20.6434 24.8675 21.25 23.125 21.25C22.4344 21.25 21.779 21.1226 21.1588 20.8678C20.5385 20.613 19.9632 20.2677 19.4328 19.8319L16.8269 17.5578L17.7403 16.7116L20.2547 18.9181C20.6522 19.274 21.0994 19.5432 21.5963 19.7259C22.0929 19.9086 22.6031 20 23.1269 20C24.5073 20 25.6854 19.5116 26.6613 18.5347C27.6371 17.5576 28.125 16.3781 28.125 14.9963C28.125 13.6142 27.6371 12.4359 26.6613 11.4616C25.6854 10.4872 24.5073 10 23.1269 10C22.6031 10 22.0929 10.0961 21.5963 10.2884C21.0994 10.4807 20.6522 10.7452 20.2547 11.0819L10.5672 19.8319C10.0689 20.2998 9.50187 20.6531 8.86625 20.8919C8.23062 21.1306 7.56687 21.25 6.875 21.25Z" fill="black"/>
</g>
</svg>
