<svg width="267" height="32" viewBox="0 0 267 32" fill="none" xmlns="http://www.w3.org/2000/svg">
<path d="M13.9597 32H0.0156323V28.7132H13.9597V32Z" fill="black"/>
<path d="M30.8567 32H16.8687L14.8663 28.7132H32.8568L30.8567 32Z" fill="black"/>
<path d="M47.7255 32H33.7814V28.7132H47.7255V32Z" fill="black"/>
<path d="M64.796 32H50.8519V28.7132H64.796V32Z" fill="black"/>
<path d="M88.8072 32H74.8632V28.7132H88.8072V32Z" fill="black"/>
<path d="M124.699 32H91.9337V28.7132H124.699V32Z" fill="black"/>
<path d="M155.698 32H127.81V28.7132H155.698V32Z" fill="black"/>
<path d="M181.397 32H167.453V28.7132H181.397V32Z" fill="black"/>
<path d="M207.097 32H193.153V28.7132H207.097V32Z" fill="black"/>
<path d="M225.918 32H211.96L210.631 28.7132H224.59L225.918 32Z" fill="black"/>
<path d="M267 32H229.045V28.7132H267V32Z" fill="black"/>
<path d="M47.7255 27.2248H33.7814V27.1938L33.7625 27.2248H0.0156323V23.938H47.7255V27.2248Z" fill="black"/>
<path d="M64.796 27.2248H50.8519V23.938H64.796V27.2248Z" fill="black"/>
<path d="M88.8072 27.2248H74.8632V23.938H88.8072V27.2248Z" fill="black"/>
<path d="M124.699 27.2248H91.9337V23.938H124.699V27.2248Z" fill="black"/>
<path d="M155.698 27.2248H127.81V23.938H155.698V27.2248Z" fill="black"/>
<path d="M181.397 27.2248H167.453V23.938H181.397V27.2248Z" fill="black"/>
<path d="M207.097 27.2248H193.153V23.938H207.097V27.2248Z" fill="black"/>
<path d="M223.988 27.2248H210.03L208.701 23.938H222.659L223.988 27.2248Z" fill="black"/>
<path d="M267 27.2248H229.045V23.938H267V27.2248Z" fill="black"/>
<path d="M47.7255 22.4496H0.0156323V19.1628H47.7255V22.4496Z" fill="black"/>
<path d="M88.8072 22.4496H50.8519V19.1628H88.8072V22.4496Z" fill="black"/>
<path d="M105.878 19.1628V22.4496H91.9337V19.1628H105.878Z" fill="black"/>
<path d="M154.624 22.4496H140.666L137.671 19.1628H151.629L154.624 22.4496Z" fill="black"/>
<path d="M181.397 22.4496H167.453V19.1628H181.397V22.4496Z" fill="black"/>
<path d="M207.097 22.4496H193.153V19.1628H207.097V22.4496Z" fill="black"/>
<path d="M221.055 19.969L222.058 22.4496H208.1L207.097 19.969L207.426 19.1628H221.384L221.055 19.969Z" fill="black"/>
<path d="M242.989 22.4496H229.045V19.1628H242.989V22.4496Z" fill="black"/>
<path d="M267 22.4496H253.056V19.1628H267V22.4496Z" fill="black"/>
<path d="M23.2753 17.6744H0.0156323V14.3256H21.5099L23.2753 17.6744Z" fill="black"/>
<path d="M47.7255 17.6744H24.4502L26.2155 14.3256H47.7255V17.6744Z" fill="black"/>
<path d="M88.8072 17.6744H50.8519V14.3256H88.8072V17.6744Z" fill="black"/>
<path d="M120.494 17.6744H91.9337V14.3256H120.494V17.6744Z" fill="black"/>
<path d="M150.273 17.6744H136.314L133.263 14.3256H147.221L150.273 17.6744Z" fill="black"/>
<path d="M181.397 17.6744H167.453V14.3256H181.397V17.6744Z" fill="black"/>
<path d="M207.097 17.6744H193.153V14.3256H207.097V17.6744Z" fill="black"/>
<path d="M221.992 17.6744H208.034L209.402 14.3256H223.36L221.992 17.6744Z" fill="black"/>
<path d="M242.989 17.6744H229.045V14.3256H242.989V17.6744Z" fill="black"/>
<path d="M267 17.6744H253.056V14.3256H267V17.6744Z" fill="black"/>
<path d="M20.7253 12.8372H0.0156323V9.55039H18.9927L20.7253 12.8372Z" fill="black"/>
<path d="M47.7255 12.8372H27.0002L28.7328 9.55039H47.7255V12.8372Z" fill="black"/>
<path d="M64.796 12.8372H50.8519V9.55039H64.796V12.8372Z" fill="black"/>
<path d="M88.8072 12.8372H74.8632V9.55039H88.8072V12.8372Z" fill="black"/>
<path d="M105.878 12.8372H91.9337V9.55039H105.878V12.8372Z" fill="black"/>
<path d="M145.865 12.8372H131.907L128.912 9.55039H142.87L145.865 12.8372Z" fill="black"/>
<path d="M181.397 12.8372H167.453V9.55039H181.397V12.8372Z" fill="black"/>
<path d="M207.097 12.8372H193.153V9.55039H207.097V12.8372Z" fill="black"/>
<path d="M223.968 12.8372H210.01L211.352 9.55039H225.31L223.968 12.8372Z" fill="black"/>
<path d="M242.989 12.8372H229.045V9.55039H242.989V12.8372Z" fill="black"/>
<path d="M267 12.8372H253.056V9.55039H267V12.8372Z" fill="black"/>
<path d="M18.2081 8.06202H0.0156323V4.77519H16.4755L18.2081 8.06202Z" fill="black"/>
<path d="M47.7255 8.06202H29.5174L31.25 4.77519H47.7255V8.06202Z" fill="black"/>
<path d="M88.8072 8.06202H50.8519V4.77519H88.8072V8.06202Z" fill="black"/>
<path d="M124.699 8.06202H91.9337V4.77519H124.699V8.06202Z" fill="black"/>
<path d="M155.698 8.06202H127.81V4.77519H155.698V8.06202Z" fill="black"/>
<path d="M190.026 8.06202H158.824V4.77519H190.026V8.06202Z" fill="black"/>
<path d="M225.918 8.06202H193.153V4.77519H225.918V8.06202Z" fill="black"/>
<path d="M267 8.06202H229.045V4.77519H267V8.06202Z" fill="black"/>
<path d="M13.9597 0.00278585L15.6908 3.28682H0.0156323V0.0296754L0 0H13.9597V0.00278585Z" fill="black"/>
<path d="M47.7255 3.28682H32.0347L33.7673 0H47.7255V3.28682Z" fill="black"/>
<path d="M88.8072 3.28682H50.8519V0H88.8072V3.28682Z" fill="black"/>
<path d="M124.699 3.28682H91.9337V0H124.699V3.28682Z" fill="black"/>
<path d="M155.698 3.28682H127.81V0H155.698V3.28682Z" fill="black"/>
<path d="M190.026 3.28682H158.824V0H190.026V3.28682Z" fill="black"/>
<path d="M225.918 3.28682H193.153V0H225.918V3.28682Z" fill="black"/>
<path d="M267 3.28682H229.045V0H267V3.28682Z" fill="black"/>
</svg>
