<svg width="30" height="30" viewBox="0 0 30 30" fill="none" xmlns="http://www.w3.org/2000/svg">
<mask id="mask0_72_328" style="mask-type:alpha" maskUnits="userSpaceOnUse" x="0" y="0" width="30" height="30">
<rect width="30" height="30" fill="#D9D9D9"/>
</mask>
<g mask="url(#mask0_72_328)">
<path d="M10.1406 17.3594C9.83854 17.0573 9.6875 16.6875 9.6875 16.25C9.6875 15.8125 9.83854 15.4427 10.1406 15.1406C10.4427 14.8385 10.8125 14.6875 11.25 14.6875C11.6875 14.6875 12.0573 14.8385 12.3594 15.1406C12.6615 15.4427 12.8125 15.8125 12.8125 16.25C12.8125 16.6875 12.6615 17.0573 12.3594 17.3594C12.0573 17.6615 11.6875 17.8125 11.25 17.8125C10.8125 17.8125 10.4427 17.6615 10.1406 17.3594ZM17.6406 17.3594C17.3385 17.0573 17.1875 16.6875 17.1875 16.25C17.1875 15.8125 17.3385 15.4427 17.6406 15.1406C17.9427 14.8385 18.3125 14.6875 18.75 14.6875C19.1875 14.6875 19.5573 14.8385 19.8594 15.1406C20.1615 15.4427 20.3125 15.8125 20.3125 16.25C20.3125 16.6875 20.1615 17.0573 19.8594 17.3594C19.5573 17.6615 19.1875 17.8125 18.75 17.8125C18.3125 17.8125 17.9427 17.6615 17.6406 17.3594ZM15 25C17.7917 25 20.1562 24.0312 22.0938 22.0938C24.0312 20.1562 25 17.7917 25 15C25 14.5 24.9688 14.0156 24.9063 13.5469C24.8438 13.0781 24.7292 12.625 24.5625 12.1875C24.125 12.2917 23.6875 12.3698 23.25 12.4219C22.8125 12.474 22.3542 12.5 21.875 12.5C19.9792 12.5 18.1875 12.0938 16.5 11.2812C14.8125 10.4688 13.375 9.33333 12.1875 7.875C11.5208 9.5 10.5677 10.9115 9.32812 12.1094C8.08854 13.3073 6.64583 14.2083 5 14.8125V15C5 17.7917 5.96875 20.1562 7.90625 22.0938C9.84375 24.0312 12.2083 25 15 25ZM15.0041 26.25C13.4484 26.25 11.9858 25.9548 10.6163 25.3644C9.24687 24.774 8.05562 23.9727 7.0425 22.9606C6.02938 21.9485 5.2274 20.7583 4.63656 19.39C4.04552 18.0219 3.75 16.5599 3.75 15.0041C3.75 13.4484 4.04521 11.9858 4.63562 10.6162C5.22604 9.24687 6.02729 8.05562 7.03938 7.0425C8.05146 6.02937 9.24167 5.2274 10.61 4.63656C11.9781 4.04552 13.4401 3.75 14.9959 3.75C16.5516 3.75 18.0142 4.04521 19.3838 4.63563C20.7531 5.22604 21.9444 6.02729 22.9575 7.03938C23.9706 8.05146 24.7726 9.24167 25.3634 10.61C25.9545 11.9781 26.25 13.4401 26.25 14.9959C26.25 16.5516 25.9548 18.0142 25.3644 19.3837C24.774 20.7531 23.9727 21.9444 22.9606 22.9575C21.9485 23.9706 20.7583 24.7726 19.39 25.3634C18.0219 25.9545 16.5599 26.25 15.0041 26.25ZM12.1347 5.39656C13.1539 7.43177 14.5938 8.91615 16.4544 9.84969C18.315 10.7832 20.1219 11.25 21.875 11.25C22.2629 11.25 22.6444 11.2304 23.0194 11.1912C23.3944 11.1519 23.7677 11.0873 24.1394 10.9975C23.3446 9.13854 22.113 7.67427 20.4447 6.60469C18.7764 5.53489 16.9615 5 15 5C14.4519 5 13.9503 5.03167 13.4953 5.095C13.0401 5.15833 12.5866 5.25885 12.1347 5.39656ZM5.17063 13.3822C6.4575 12.8101 7.76125 11.8726 9.08187 10.5697C10.4023 9.26677 11.1723 7.62896 11.3919 5.65625C9.72042 6.2925 8.33656 7.29406 7.24031 8.66094C6.14427 10.028 5.45438 11.6018 5.17063 13.3822Z" fill="black"/>
</g>
</svg>
