<svg width="30" height="30" viewBox="0 0 30 30" fill="none" xmlns="http://www.w3.org/2000/svg">
<mask id="mask0_91_462" style="mask-type:alpha" maskUnits="userSpaceOnUse" x="0" y="0" width="30" height="30">
<rect width="30" height="30" fill="#D9D9D9"/>
</mask>
<g mask="url(#mask0_91_462)">
<path d="M15 26.25C13.4519 26.25 11.9935 25.954 10.625 25.3619C9.25646 24.7696 8.06458 23.9658 7.04938 22.9506C6.03417 21.9354 5.23042 20.7435 4.63812 19.375C4.04604 18.0065 3.75 16.5481 3.75 15C3.75 13.4471 4.04604 11.9864 4.63812 10.6178C5.23042 9.24927 6.03417 8.05458 7.04938 7.03375C8.06458 6.01292 9.25646 5.21042 10.625 4.62625C11.9935 4.04208 13.4519 3.75 15 3.75C16.5529 3.75 18.0136 4.04208 19.3822 4.62625C20.7507 5.21042 21.9454 6.01292 22.9662 7.03375C23.9871 8.05458 24.7896 9.24927 25.3738 10.6178C25.9579 11.9864 26.25 13.4471 26.25 15C26.25 16.5481 25.9579 18.0065 25.3738 19.375C24.7896 20.7435 23.9871 21.9354 22.9662 22.9506C21.9454 23.9658 20.7507 24.7696 19.3822 25.3619C18.0136 25.954 16.5529 26.25 15 26.25ZM15 5C12.5754 5 10.4496 5.76083 8.6225 7.2825C6.79563 8.80417 5.65458 10.71 5.19938 13C5.71229 12.96 6.27281 12.7449 6.88094 12.3547C7.48906 11.9645 8.10885 11.1299 8.74031 9.85094C9.00469 9.3174 9.39094 8.89635 9.89906 8.58781C10.407 8.27927 10.9615 8.125 11.5625 8.125H18.4375C19.0385 8.125 19.593 8.27521 20.1009 8.57562C20.6091 8.87625 20.9953 9.29333 21.2597 9.82688C21.907 11.1267 22.5411 11.9745 23.1622 12.3703C23.7832 12.7661 24.3294 12.976 24.8006 13C24.3454 10.71 23.2055 8.80417 21.3809 7.2825C19.5566 5.76083 17.4296 5 15 5ZM15 25C17.7917 25 20.1575 24.0248 22.0975 22.0744C24.0373 20.1242 25.0048 17.7613 25 14.9856V14.6369C25 14.5327 24.992 14.4246 24.9759 14.3125C23.7532 14.2148 22.7621 13.7873 22.0025 13.03C21.2429 12.2729 20.6139 11.3959 20.1153 10.3991C19.9472 10.0736 19.72 9.82167 19.4338 9.64313C19.1477 9.46438 18.826 9.375 18.4688 9.375H11.5625C11.1844 9.375 10.8523 9.46438 10.5662 9.64313C10.28 9.82167 10.0528 10.0736 9.88469 10.3991C9.38615 11.4168 8.75469 12.3042 7.99031 13.0613C7.22594 13.8185 6.23719 14.246 5.02406 14.3438C5.00802 14.4558 5 14.564 5 14.6681V14.9928C5 17.7684 5.97396 20.1302 7.92188 22.0781C9.86979 24.026 12.2292 25 15 25ZM10.1406 17.3594C9.83854 17.0573 9.6875 16.6875 9.6875 16.25C9.6875 15.8125 9.83854 15.4427 10.1406 15.1406C10.4427 14.8385 10.8125 14.6875 11.25 14.6875C11.6875 14.6875 12.0573 14.8385 12.3594 15.1406C12.6615 15.4427 12.8125 15.8125 12.8125 16.25C12.8125 16.6875 12.6615 17.0573 12.3594 17.3594C12.0573 17.6615 11.6875 17.8125 11.25 17.8125C10.8125 17.8125 10.4427 17.6615 10.1406 17.3594ZM17.6406 17.3594C17.3385 17.0573 17.1875 16.6875 17.1875 16.25C17.1875 15.8125 17.3385 15.4427 17.6406 15.1406C17.9427 14.8385 18.3125 14.6875 18.75 14.6875C19.1875 14.6875 19.5573 14.8385 19.8594 15.1406C20.1615 15.4427 20.3125 15.8125 20.3125 16.25C20.3125 16.6875 20.1615 17.0573 19.8594 17.3594C19.5573 17.6615 19.1875 17.8125 18.75 17.8125C18.3125 17.8125 17.9427 17.6615 17.6406 17.3594Z" fill="black"/>
</g>
</svg>
