<svg width="30" height="30" viewBox="0 0 30 30" fill="none" xmlns="http://www.w3.org/2000/svg">
<mask id="mask0_66_143" style="mask-type:alpha" maskUnits="userSpaceOnUse" x="0" y="0" width="30" height="30">
<rect width="30" height="30" fill="#D9D9D9"/>
</mask>
<g mask="url(#mask0_66_143)">
<path d="M13.2212 15.5288C12.7404 15.0481 12.5 14.4552 12.5 13.75V6.25C12.5 5.54479 12.7404 4.95188 13.2212 4.47125C13.7019 3.99042 14.2948 3.75 15 3.75C15.7052 3.75 16.2981 3.99042 16.7787 4.47125C17.2596 4.95188 17.5 5.54479 17.5 6.25V13.75C17.5 14.4552 17.2596 15.0481 16.7787 15.5288C16.2981 16.0096 15.7052 16.25 15 16.25C14.2948 16.25 13.7019 16.0096 13.2212 15.5288ZM14.375 25.625V21.2284C12.4167 21.0489 10.7813 20.2483 9.46875 18.8269C8.15625 17.4054 7.5 15.7131 7.5 13.75H8.75C8.75 15.4792 9.35938 16.9531 10.5781 18.1719C11.7969 19.3906 13.2708 20 15 20C16.7292 20 18.2031 19.3906 19.4219 18.1719C20.6406 16.9531 21.25 15.4792 21.25 13.75H22.5C22.5 15.7131 21.8438 17.4054 20.5312 18.8269C19.2188 20.2483 17.5833 21.0489 15.625 21.2284V25.625H14.375ZM15.8906 14.6406C16.1302 14.401 16.25 14.1042 16.25 13.75V6.25C16.25 5.89583 16.1302 5.59896 15.8906 5.35938C15.651 5.11979 15.3542 5 15 5C14.6458 5 14.349 5.11979 14.1094 5.35938C13.8698 5.59896 13.75 5.89583 13.75 6.25V13.75C13.75 14.1042 13.8698 14.401 14.1094 14.6406C14.349 14.8802 14.6458 15 15 15C15.3542 15 15.651 14.8802 15.8906 14.6406Z" fill="black"/>
</g>
</svg>
