<svg width="30" height="30" viewBox="0 0 30 30" fill="none" xmlns="http://www.w3.org/2000/svg">
<mask id="mask0_694_30893" style="mask-type:alpha" maskUnits="userSpaceOnUse" x="0" y="0" width="30" height="30">
<rect width="30" height="30" fill="#D9D9D9"/>
</mask>
<g mask="url(#mask0_694_30893)">
<path d="M13.9591 26.2494C13.2797 26.2494 12.6327 26.1083 12.0182 25.8263C11.4036 25.5442 10.8951 25.134 10.4928 24.5956L4.56972 16.7566L4.89909 16.3959C5.10743 16.1668 5.35503 16.0266 5.6419 15.9753C5.92878 15.9241 6.20201 15.9746 6.46159 16.1269L10.2403 17.9897V8.46094C10.2403 8.28385 10.3003 8.13542 10.4203 8.01563C10.5403 7.89583 10.689 7.83594 10.8663 7.83594C11.0436 7.83594 11.1932 7.89583 11.315 8.01563C11.4367 8.13542 11.4975 8.28385 11.4975 8.46094V20.11L7.02409 17.8984L11.5722 23.9056C11.8574 24.2758 12.2116 24.5506 12.6347 24.73C13.0578 24.9096 13.4993 24.9994 13.9591 24.9994H19.351C20.2308 24.9994 20.9755 24.6985 21.5853 24.0969C22.1951 23.495 22.5 22.7542 22.5 21.8744V17.4512C22.5 16.9473 22.3295 16.5248 21.9885 16.1837C21.6476 15.8429 21.2252 15.6725 20.7213 15.6725H14.9591V14.4225H20.7213C21.5625 14.4225 22.2776 14.717 22.8666 15.3059C23.4555 15.8949 23.75 16.61 23.75 17.4512V21.8728C23.75 23.0886 23.3193 24.122 22.4578 24.9728C21.5964 25.8239 20.5608 26.2494 19.351 26.2494H13.9591ZM10.8625 1.89844C12.6865 1.89844 14.2355 2.53646 15.5097 3.8125C16.7837 5.08854 17.4207 6.63802 17.4207 8.46094C17.4207 9.06094 17.3445 9.63833 17.1922 10.1931C17.0399 10.7477 16.8204 11.2704 16.5338 11.7612L15.5819 11.2084C15.8159 10.7918 15.9965 10.3519 16.1238 9.88875C16.2513 9.42563 16.315 8.94969 16.315 8.46094C16.315 6.9451 15.7846 5.65667 14.7238 4.59562C13.6629 3.53458 12.3749 3.00406 10.8597 3.00406C9.3443 3.00406 8.05576 3.53458 6.99409 4.59562C5.93242 5.65667 5.40159 6.9451 5.40159 8.46094C5.40159 8.94969 5.46409 9.42563 5.58909 9.88875C5.71409 10.3519 5.89357 10.7837 6.12753 11.1844L5.17565 11.73C4.89024 11.2525 4.67222 10.7364 4.52159 10.1816C4.37097 9.62677 4.29565 9.04927 4.29565 8.44906C4.29565 6.6301 4.93409 5.08354 6.21097 3.80937C7.48784 2.53542 9.03836 1.89844 10.8625 1.89844ZM10.8625 4.855C11.8596 4.855 12.7091 5.20615 13.411 5.90844C14.1131 6.61073 14.4641 7.45854 14.4641 8.45187C14.4641 8.79437 14.424 9.11594 14.3438 9.41656C14.2636 9.71698 14.1353 10.0018 13.9591 10.2709L12.9832 9.71812C13.0873 9.53417 13.1707 9.3349 13.2332 9.12031C13.2957 8.90552 13.3269 8.68573 13.3269 8.46094C13.3269 7.77344 13.0821 7.1849 12.5925 6.69531C12.1029 6.20573 11.5144 5.96094 10.8269 5.96094C10.1346 5.96094 9.54493 6.20573 9.05784 6.69531C8.57055 7.1849 8.3269 7.77344 8.3269 8.46094C8.3269 8.6901 8.35815 8.91125 8.42065 9.12437C8.48315 9.3375 8.56649 9.53542 8.67065 9.71812L7.71878 10.2709C7.56336 10.0018 7.4468 9.71292 7.36909 9.40438C7.29138 9.09583 7.25253 8.78135 7.25253 8.46094C7.25253 7.4651 7.60065 6.61521 8.2969 5.91125C8.99315 5.20708 9.84836 4.855 10.8625 4.855Z" fill="black"/>
</g>
</svg>
