<svg width="30" height="30" viewBox="0 0 30 30" fill="none" xmlns="http://www.w3.org/2000/svg">
<mask id="mask0_694_30892" style="mask-type:alpha" maskUnits="userSpaceOnUse" x="0" y="0" width="30" height="30">
<rect width="30" height="30" fill="#D9D9D9"/>
</mask>
<g mask="url(#mask0_694_30892)">
<path d="M13.9591 26.2494C13.2797 26.2494 12.6327 26.1083 12.0181 25.8263C11.4036 25.5442 10.8951 25.134 10.4928 24.5956L4.5697 16.7566L4.89908 16.3959C5.10741 16.1668 5.35501 16.0266 5.64189 15.9753C5.92876 15.9241 6.20199 15.9746 6.46158 16.1269L10.2403 17.9897V8.46094C10.2403 8.28385 10.3003 8.13542 10.4203 8.01562C10.5403 7.89583 10.689 7.83594 10.8663 7.83594C11.0436 7.83594 11.1931 7.89583 11.315 8.01562C11.4367 8.13542 11.4975 8.28385 11.4975 8.46094V20.11L7.02408 17.8984L11.5722 23.9056C11.8574 24.2758 12.2116 24.5506 12.6347 24.73C13.0578 24.9096 13.4993 24.9994 13.9591 24.9994H19.351C20.2307 24.9994 20.9755 24.6985 21.5853 24.0969C22.1951 23.495 22.5 22.7542 22.5 21.8744V17.4512C22.5 16.9473 22.3295 16.5248 21.9885 16.1837C21.6476 15.8429 21.2252 15.6725 20.7213 15.6725H14.9591V14.4225H20.7213C21.5625 14.4225 22.2776 14.717 22.8666 15.3059C23.4555 15.8949 23.75 16.61 23.75 17.4512V21.8728C23.75 23.0886 23.3193 24.122 22.4578 24.9728C21.5964 25.8239 20.5607 26.2494 19.351 26.2494H13.9591ZM6.54095 10.9609C6.31824 10.5828 6.14991 10.1831 6.03595 9.76188C5.9222 9.34063 5.86533 8.90698 5.86533 8.46094C5.86533 7.06823 6.35054 5.88677 7.32095 4.91656C8.29137 3.94614 9.47179 3.46094 10.8622 3.46094C11.3147 3.46094 11.7452 3.51656 12.1538 3.62781C12.5625 3.73927 12.956 3.89833 13.3341 4.105C14.121 4.55062 14.7396 5.15885 15.19 5.92969C15.6402 6.70052 15.8653 7.54156 15.8653 8.45281C15.8653 8.90844 15.8085 9.34583 15.6947 9.765C15.581 10.1842 15.4127 10.5828 15.19 10.9609L14.1153 10.3359C14.282 10.0443 14.407 9.7474 14.4903 9.44531C14.5737 9.14323 14.6153 8.8151 14.6153 8.46094C14.6153 7.79427 14.4435 7.16927 14.0997 6.58594C13.756 6.0026 13.2924 5.54427 12.7091 5.21094C12.4382 5.04427 12.1466 4.91927 11.8341 4.83594C11.5216 4.7526 11.1987 4.71094 10.8653 4.71094C9.82366 4.71094 8.93824 5.07552 8.20908 5.80469C7.47991 6.53385 7.11533 7.41927 7.11533 8.46094C7.11533 8.8151 7.15699 9.14323 7.24033 9.44531C7.32366 9.7474 7.44866 10.0443 7.61533 10.3359L6.54095 10.9609ZM17.5891 5.21094L18.2141 4.105C19.001 4.55062 19.6195 5.15885 20.0697 5.92969C20.5201 6.70052 20.7453 7.54156 20.7453 8.45281C20.7453 8.90844 20.6883 9.34583 20.5744 9.765C20.4606 10.1842 20.2924 10.5828 20.0697 10.9609L18.9953 10.3359C19.162 10.0443 19.287 9.7474 19.3703 9.44531C19.4537 9.14323 19.4953 8.8151 19.4953 8.46094C19.4953 7.79427 19.3235 7.16927 18.9797 6.58594C18.636 6.0026 18.1724 5.54427 17.5891 5.21094Z" fill="black"/>
</g>
</svg>
