<svg width="30" height="30" viewBox="0 0 30 30" fill="none" xmlns="http://www.w3.org/2000/svg">
<mask id="mask0_83_800" style="mask-type:alpha" maskUnits="userSpaceOnUse" x="0" y="0" width="30" height="30">
<rect width="30" height="30" fill="#D9D9D9"/>
</mask>
<g mask="url(#mask0_83_800)">
<path d="M18.2944 20.1191C19.2985 19.4611 20.053 18.5881 20.5578 17.5H9.44219C9.94698 18.5881 10.7015 19.4611 11.7056 20.1191C12.7096 20.7768 13.8077 21.1056 15 21.1056C16.1923 21.1056 17.2904 20.7768 18.2944 20.1191ZM9.75 13.2213L11.125 11.8606L12.4856 13.2213L13.2694 12.4375L11.125 10.2787L8.96625 12.4375L9.75 13.2213ZM17.5144 13.2213L18.875 11.8606L20.25 13.2213L21.0338 12.4375L18.875 10.2787L16.7306 12.4375L17.5144 13.2213ZM10.6163 25.3644C9.24687 24.774 8.05562 23.9727 7.0425 22.9606C6.02938 21.9485 5.2274 20.7583 4.63656 19.39C4.04552 18.0219 3.75 16.5599 3.75 15.0041C3.75 13.4484 4.04521 11.9858 4.63562 10.6162C5.22604 9.24687 6.02729 8.05562 7.03938 7.0425C8.05146 6.02937 9.24167 5.2274 10.61 4.63656C11.9781 4.04552 13.4401 3.75 14.9959 3.75C16.5516 3.75 18.0142 4.04521 19.3838 4.63563C20.7531 5.22604 21.9444 6.02729 22.9575 7.03938C23.9706 8.05146 24.7726 9.24167 25.3634 10.61C25.9545 11.9781 26.25 13.4401 26.25 14.9959C26.25 16.5516 25.9548 18.0142 25.3644 19.3837C24.774 20.7531 23.9727 21.9444 22.9606 22.9575C21.9485 23.9706 20.7583 24.7726 19.39 25.3634C18.0219 25.9545 16.5599 26.25 15.0041 26.25C13.4484 26.25 11.9858 25.9548 10.6163 25.3644ZM22.0938 22.0938C24.0312 20.1562 25 17.7917 25 15C25 12.2083 24.0312 9.84375 22.0938 7.90625C20.1562 5.96875 17.7917 5 15 5C12.2083 5 9.84375 5.96875 7.90625 7.90625C5.96875 9.84375 5 12.2083 5 15C5 17.7917 5.96875 20.1562 7.90625 22.0938C9.84375 24.0312 12.2083 25 15 25C17.7917 25 20.1562 24.0312 22.0938 22.0938Z" fill="black"/>
</g>
</svg>
