<svg width="30" height="30" viewBox="0 0 30 30" fill="none" xmlns="http://www.w3.org/2000/svg">
<mask id="mask0_83_803" style="mask-type:alpha" maskUnits="userSpaceOnUse" x="0" y="0" width="30" height="30">
<rect width="30" height="30" fill="#D9D9D9"/>
</mask>
<g mask="url(#mask0_83_803)">
<path d="M19.1403 13.2694C19.5291 13.2694 19.8577 13.1332 20.1262 12.8609C20.3946 12.5886 20.5287 12.2581 20.5287 11.8694C20.5287 11.4804 20.3927 11.1518 20.1206 10.8834C19.8483 10.6149 19.5178 10.4806 19.1291 10.4806C18.7401 10.4806 18.4115 10.6168 18.1431 10.8891C17.8746 11.1614 17.7403 11.4919 17.7403 11.8806C17.7403 12.2696 17.8765 12.5982 18.1488 12.8666C18.4208 13.1351 18.7514 13.2694 19.1403 13.2694ZM10.8709 13.2694C11.2599 13.2694 11.5885 13.1332 11.8569 12.8609C12.1254 12.5886 12.2597 12.2581 12.2597 11.8694C12.2597 11.4804 12.1235 11.1518 11.8512 10.8834C11.5792 10.6149 11.2486 10.4806 10.8597 10.4806C10.4709 10.4806 10.1423 10.6168 9.87375 10.8891C9.60542 11.1614 9.47125 11.4919 9.47125 11.8806C9.47125 12.2696 9.60729 12.5982 9.87938 12.8666C10.1517 13.1351 10.4822 13.2694 10.8709 13.2694ZM11.4422 18.9903H18.5578V17.8847H11.4422V18.9903ZM10.6163 25.3644C9.24687 24.774 8.05562 23.9727 7.0425 22.9606C6.02938 21.9485 5.2274 20.7583 4.63656 19.39C4.04552 18.0219 3.75 16.5599 3.75 15.0041C3.75 13.4484 4.04521 11.9858 4.63562 10.6162C5.22604 9.24687 6.02729 8.05562 7.03938 7.0425C8.05146 6.02937 9.24167 5.2274 10.61 4.63656C11.9781 4.04552 13.4401 3.75 14.9959 3.75C16.5516 3.75 18.0142 4.04521 19.3838 4.63563C20.7531 5.22604 21.9444 6.02729 22.9575 7.03938C23.9706 8.05146 24.7726 9.24167 25.3634 10.61C25.9545 11.9781 26.25 13.4401 26.25 14.9959C26.25 16.5516 25.9548 18.0142 25.3644 19.3837C24.774 20.7531 23.9727 21.9444 22.9606 22.9575C21.9485 23.9706 20.7583 24.7726 19.39 25.3634C18.0219 25.9545 16.5599 26.25 15.0041 26.25C13.4484 26.25 11.9858 25.9548 10.6163 25.3644ZM22.0938 22.0938C24.0312 20.1562 25 17.7917 25 15C25 12.2083 24.0312 9.84375 22.0938 7.90625C20.1562 5.96875 17.7917 5 15 5C12.2083 5 9.84375 5.96875 7.90625 7.90625C5.96875 9.84375 5 12.2083 5 15C5 17.7917 5.96875 20.1562 7.90625 22.0938C9.84375 24.0312 12.2083 25 15 25C17.7917 25 20.1562 24.0312 22.0938 22.0938Z" fill="black"/>
</g>
</svg>
