<svg width="30" height="30" viewBox="0 0 30 30" fill="none" xmlns="http://www.w3.org/2000/svg">
<mask id="mask0_91_463" style="mask-type:alpha" maskUnits="userSpaceOnUse" x="0" y="0" width="30" height="30">
<rect width="30" height="30" fill="#D9D9D9"/>
</mask>
<g mask="url(#mask0_91_463)">
<path d="M14.5625 7.625C14.4375 7.5 14.375 7.35417 14.375 7.1875C14.375 7.02083 14.4375 6.875 14.5625 6.75C14.6875 6.625 14.8333 6.5625 15 6.5625C15.1667 6.5625 15.3125 6.625 15.4375 6.75C15.5625 6.875 15.625 7.02083 15.625 7.1875C15.625 7.35417 15.5625 7.5 15.4375 7.625C15.3125 7.75 15.1667 7.8125 15 7.8125C14.8333 7.8125 14.6875 7.75 14.5625 7.625ZM17.0625 7.625C16.9375 7.5 16.875 7.35417 16.875 7.1875C16.875 7.02083 16.9375 6.875 17.0625 6.75C17.1875 6.625 17.3333 6.5625 17.5 6.5625C17.6667 6.5625 17.8125 6.625 17.9375 6.75C18.0625 6.875 18.125 7.02083 18.125 7.1875C18.125 7.35417 18.0625 7.5 17.9375 7.625C17.8125 7.75 17.6667 7.8125 17.5 7.8125C17.3333 7.8125 17.1875 7.75 17.0625 7.625ZM12.0625 7.625C11.9375 7.5 11.875 7.35417 11.875 7.1875C11.875 7.02083 11.9375 6.875 12.0625 6.75C12.1875 6.625 12.3333 6.5625 12.5 6.5625C12.6667 6.5625 12.8125 6.625 12.9375 6.75C13.0625 6.875 13.125 7.02083 13.125 7.1875C13.125 7.35417 13.0625 7.5 12.9375 7.625C12.8125 7.75 12.6667 7.8125 12.5 7.8125C12.3333 7.8125 12.1875 7.75 12.0625 7.625ZM20.8125 8.875C20.6875 8.75 20.625 8.60417 20.625 8.4375C20.625 8.27083 20.6875 8.125 20.8125 8C20.9375 7.875 21.0833 7.8125 21.25 7.8125C21.4167 7.8125 21.5625 7.875 21.6875 8C21.8125 8.125 21.875 8.27083 21.875 8.4375C21.875 8.60417 21.8125 8.75 21.6875 8.875C21.5625 9 21.4167 9.0625 21.25 9.0625C21.0833 9.0625 20.9375 9 20.8125 8.875ZM10.8125 8.875C10.6875 8.75 10.625 8.60417 10.625 8.4375C10.625 8.27083 10.6875 8.125 10.8125 8C10.9375 7.875 11.0833 7.8125 11.25 7.8125C11.4167 7.8125 11.5625 7.875 11.6875 8C11.8125 8.125 11.875 8.27083 11.875 8.4375C11.875 8.60417 11.8125 8.75 11.6875 8.875C11.5625 9 11.4167 9.0625 11.25 9.0625C11.0833 9.0625 10.9375 9 10.8125 8.875ZM8.3125 8.875C8.1875 8.75 8.125 8.60417 8.125 8.4375C8.125 8.27083 8.1875 8.125 8.3125 8C8.4375 7.875 8.58333 7.8125 8.75 7.8125C8.91667 7.8125 9.0625 7.875 9.1875 8C9.3125 8.125 9.375 8.27083 9.375 8.4375C9.375 8.60417 9.3125 8.75 9.1875 8.875C9.0625 9 8.91667 9.0625 8.75 9.0625C8.58333 9.0625 8.4375 9 8.3125 8.875ZM13.3125 8.875C13.1875 8.75 13.125 8.60417 13.125 8.4375C13.125 8.27083 13.1875 8.125 13.3125 8C13.4375 7.875 13.5833 7.8125 13.75 7.8125C13.9167 7.8125 14.0625 7.875 14.1875 8C14.3125 8.125 14.375 8.27083 14.375 8.4375C14.375 8.60417 14.3125 8.75 14.1875 8.875C14.0625 9 13.9167 9.0625 13.75 9.0625C13.5833 9.0625 13.4375 9 13.3125 8.875ZM15.8125 8.875C15.6875 8.75 15.625 8.60417 15.625 8.4375C15.625 8.27083 15.6875 8.125 15.8125 8C15.9375 7.875 16.0833 7.8125 16.25 7.8125C16.4167 7.8125 16.5625 7.875 16.6875 8C16.8125 8.125 16.875 8.27083 16.875 8.4375C16.875 8.60417 16.8125 8.75 16.6875 8.875C16.5625 9 16.4167 9.0625 16.25 9.0625C16.0833 9.0625 15.9375 9 15.8125 8.875ZM18.3125 8.875C18.1875 8.75 18.125 8.60417 18.125 8.4375C18.125 8.27083 18.1875 8.125 18.3125 8C18.4375 7.875 18.5833 7.8125 18.75 7.8125C18.9167 7.8125 19.0625 7.875 19.1875 8C19.3125 8.125 19.375 8.27083 19.375 8.4375C19.375 8.60417 19.3125 8.75 19.1875 8.875C19.0625 9 18.9167 9.0625 18.75 9.0625C18.5833 9.0625 18.4375 9 18.3125 8.875ZM14.5625 10.125C14.4375 10 14.375 9.85417 14.375 9.6875C14.375 9.52083 14.4375 9.375 14.5625 9.25C14.6875 9.125 14.8333 9.0625 15 9.0625C15.1667 9.0625 15.3125 9.125 15.4375 9.25C15.5625 9.375 15.625 9.52083 15.625 9.6875C15.625 9.85417 15.5625 10 15.4375 10.125C15.3125 10.25 15.1667 10.3125 15 10.3125C14.8333 10.3125 14.6875 10.25 14.5625 10.125ZM17.0625 10.125C16.9375 10 16.875 9.85417 16.875 9.6875C16.875 9.52083 16.9375 9.375 17.0625 9.25C17.1875 9.125 17.3333 9.0625 17.5 9.0625C17.6667 9.0625 17.8125 9.125 17.9375 9.25C18.0625 9.375 18.125 9.52083 18.125 9.6875C18.125 9.85417 18.0625 10 17.9375 10.125C17.8125 10.25 17.6667 10.3125 17.5 10.3125C17.3333 10.3125 17.1875 10.25 17.0625 10.125ZM19.5625 10.125C19.4375 10 19.375 9.85417 19.375 9.6875C19.375 9.52083 19.4375 9.375 19.5625 9.25C19.6875 9.125 19.8333 9.0625 20 9.0625C20.1667 9.0625 20.3125 9.125 20.4375 9.25C20.5625 9.375 20.625 9.52083 20.625 9.6875C20.625 9.85417 20.5625 10 20.4375 10.125C20.3125 10.25 20.1667 10.3125 20 10.3125C19.8333 10.3125 19.6875 10.25 19.5625 10.125ZM12.0625 10.125C11.9375 10 11.875 9.85417 11.875 9.6875C11.875 9.52083 11.9375 9.375 12.0625 9.25C12.1875 9.125 12.3333 9.0625 12.5 9.0625C12.6667 9.0625 12.8125 9.125 12.9375 9.25C13.0625 9.375 13.125 9.52083 13.125 9.6875C13.125 9.85417 13.0625 10 12.9375 10.125C12.8125 10.25 12.6667 10.3125 12.5 10.3125C12.3333 10.3125 12.1875 10.25 12.0625 10.125ZM9.5625 10.125C9.4375 10 9.375 9.85417 9.375 9.6875C9.375 9.52083 9.4375 9.375 9.5625 9.25C9.6875 9.125 9.83333 9.0625 10 9.0625C10.1667 9.0625 10.3125 9.125 10.4375 9.25C10.5625 9.375 10.625 9.52083 10.625 9.6875C10.625 9.85417 10.5625 10 10.4375 10.125C10.3125 10.25 10.1667 10.3125 10 10.3125C9.83333 10.3125 9.6875 10.25 9.5625 10.125ZM10.8125 11.375C10.6875 11.25 10.625 11.1042 10.625 10.9375C10.625 10.7708 10.6875 10.625 10.8125 10.5C10.9375 10.375 11.0833 10.3125 11.25 10.3125C11.4167 10.3125 11.5625 10.375 11.6875 10.5C11.8125 10.625 11.875 10.7708 11.875 10.9375C11.875 11.1042 11.8125 11.25 11.6875 11.375C11.5625 11.5 11.4167 11.5625 11.25 11.5625C11.0833 11.5625 10.9375 11.5 10.8125 11.375ZM8.3125 11.375C8.1875 11.25 8.125 11.1042 8.125 10.9375C8.125 10.7708 8.1875 10.625 8.3125 10.5C8.4375 10.375 8.58333 10.3125 8.75 10.3125C8.91667 10.3125 9.0625 10.375 9.1875 10.5C9.3125 10.625 9.375 10.7708 9.375 10.9375C9.375 11.1042 9.3125 11.25 9.1875 11.375C9.0625 11.5 8.91667 11.5625 8.75 11.5625C8.58333 11.5625 8.4375 11.5 8.3125 11.375ZM13.3125 11.375C13.1875 11.25 13.125 11.1042 13.125 10.9375C13.125 10.7708 13.1875 10.625 13.3125 10.5C13.4375 10.375 13.5833 10.3125 13.75 10.3125C13.9167 10.3125 14.0625 10.375 14.1875 10.5C14.3125 10.625 14.375 10.7708 14.375 10.9375C14.375 11.1042 14.3125 11.25 14.1875 11.375C14.0625 11.5 13.9167 11.5625 13.75 11.5625C13.5833 11.5625 13.4375 11.5 13.3125 11.375ZM15.8125 11.375C15.6875 11.25 15.625 11.1042 15.625 10.9375C15.625 10.7708 15.6875 10.625 15.8125 10.5C15.9375 10.375 16.0833 10.3125 16.25 10.3125C16.4167 10.3125 16.5625 10.375 16.6875 10.5C16.8125 10.625 16.875 10.7708 16.875 10.9375C16.875 11.1042 16.8125 11.25 16.6875 11.375C16.5625 11.5 16.4167 11.5625 16.25 11.5625C16.0833 11.5625 15.9375 11.5 15.8125 11.375ZM18.3125 11.375C18.1875 11.25 18.125 11.1042 18.125 10.9375C18.125 10.7708 18.1875 10.625 18.3125 10.5C18.4375 10.375 18.5833 10.3125 18.75 10.3125C18.9167 10.3125 19.0625 10.375 19.1875 10.5C19.3125 10.625 19.375 10.7708 19.375 10.9375C19.375 11.1042 19.3125 11.25 19.1875 11.375C19.0625 11.5 18.9167 11.5625 18.75 11.5625C18.5833 11.5625 18.4375 11.5 18.3125 11.375ZM20.8125 11.375C20.6875 11.25 20.625 11.1042 20.625 10.9375C20.625 10.7708 20.6875 10.625 20.8125 10.5C20.9375 10.375 21.0833 10.3125 21.25 10.3125C21.4167 10.3125 21.5625 10.375 21.6875 10.5C21.8125 10.625 21.875 10.7708 21.875 10.9375C21.875 11.1042 21.8125 11.25 21.6875 11.375C21.5625 11.5 21.4167 11.5625 21.25 11.5625C21.0833 11.5625 20.9375 11.5 20.8125 11.375ZM5.8125 11.375C5.6875 11.25 5.625 11.1042 5.625 10.9375C5.625 10.7708 5.6875 10.625 5.8125 10.5C5.9375 10.375 6.08333 10.3125 6.25 10.3125C6.41667 10.3125 6.5625 10.375 6.6875 10.5C6.8125 10.625 6.875 10.7708 6.875 10.9375C6.875 11.1042 6.8125 11.25 6.6875 11.375C6.5625 11.5 6.41667 11.5625 6.25 11.5625C6.08333 11.5625 5.9375 11.5 5.8125 11.375ZM7.0625 10.125C6.9375 10 6.875 9.85417 6.875 9.6875C6.875 9.52083 6.9375 9.375 7.0625 9.25C7.1875 9.125 7.33333 9.0625 7.5 9.0625C7.66667 9.0625 7.8125 9.125 7.9375 9.25C8.0625 9.375 8.125 9.52083 8.125 9.6875C8.125 9.85417 8.0625 10 7.9375 10.125C7.8125 10.25 7.66667 10.3125 7.5 10.3125C7.33333 10.3125 7.1875 10.25 7.0625 10.125ZM9.5625 7.625C9.4375 7.5 9.375 7.35417 9.375 7.1875C9.375 7.02083 9.4375 6.875 9.5625 6.75C9.6875 6.625 9.83333 6.5625 10 6.5625C10.1667 6.5625 10.3125 6.625 10.4375 6.75C10.5625 6.875 10.625 7.02083 10.625 7.1875C10.625 7.35417 10.5625 7.5 10.4375 7.625C10.3125 7.75 10.1667 7.8125 10 7.8125C9.83333 7.8125 9.6875 7.75 9.5625 7.625ZM10.8125 6.375C10.6875 6.25 10.625 6.10417 10.625 5.9375C10.625 5.77083 10.6875 5.625 10.8125 5.5C10.9375 5.375 11.0833 5.3125 11.25 5.3125C11.4167 5.3125 11.5625 5.375 11.6875 5.5C11.8125 5.625 11.875 5.77083 11.875 5.9375C11.875 6.10417 11.8125 6.25 11.6875 6.375C11.5625 6.5 11.4167 6.5625 11.25 6.5625C11.0833 6.5625 10.9375 6.5 10.8125 6.375ZM13.3125 6.375C13.1875 6.25 13.125 6.10417 13.125 5.9375C13.125 5.77083 13.1875 5.625 13.3125 5.5C13.4375 5.375 13.5833 5.3125 13.75 5.3125C13.9167 5.3125 14.0625 5.375 14.1875 5.5C14.3125 5.625 14.375 5.77083 14.375 5.9375C14.375 6.10417 14.3125 6.25 14.1875 6.375C14.0625 6.5 13.9167 6.5625 13.75 6.5625C13.5833 6.5625 13.4375 6.5 13.3125 6.375ZM15.8125 6.375C15.6875 6.25 15.625 6.10417 15.625 5.9375C15.625 5.77083 15.6875 5.625 15.8125 5.5C15.9375 5.375 16.0833 5.3125 16.25 5.3125C16.4167 5.3125 16.5625 5.375 16.6875 5.5C16.8125 5.625 16.875 5.77083 16.875 5.9375C16.875 6.10417 16.8125 6.25 16.6875 6.375C16.5625 6.5 16.4167 6.5625 16.25 6.5625C16.0833 6.5625 15.9375 6.5 15.8125 6.375ZM18.3125 6.375C18.1875 6.25 18.125 6.10417 18.125 5.9375C18.125 5.77083 18.1875 5.625 18.3125 5.5C18.4375 5.375 18.5833 5.3125 18.75 5.3125C18.9167 5.3125 19.0625 5.375 19.1875 5.5C19.3125 5.625 19.375 5.77083 19.375 5.9375C19.375 6.10417 19.3125 6.25 19.1875 6.375C19.0625 6.5 18.9167 6.5625 18.75 6.5625C18.5833 6.5625 18.4375 6.5 18.3125 6.375ZM19.5625 7.625C19.4375 7.5 19.375 7.35417 19.375 7.1875C19.375 7.02083 19.4375 6.875 19.5625 6.75C19.6875 6.625 19.8333 6.5625 20 6.5625C20.1667 6.5625 20.3125 6.625 20.4375 6.75C20.5625 6.875 20.625 7.02083 20.625 7.1875C20.625 7.35417 20.5625 7.5 20.4375 7.625C20.3125 7.75 20.1667 7.8125 20 7.8125C19.8333 7.8125 19.6875 7.75 19.5625 7.625ZM22.0625 10.125C21.9375 10 21.875 9.85417 21.875 9.6875C21.875 9.52083 21.9375 9.375 22.0625 9.25C22.1875 9.125 22.3333 9.0625 22.5 9.0625C22.6667 9.0625 22.8125 9.125 22.9375 9.25C23.0625 9.375 23.125 9.52083 23.125 9.6875C23.125 9.85417 23.0625 10 22.9375 10.125C22.8125 10.25 22.6667 10.3125 22.5 10.3125C22.3333 10.3125 22.1875 10.25 22.0625 10.125ZM23.3125 11.375C23.1875 11.25 23.125 11.1042 23.125 10.9375C23.125 10.7708 23.1875 10.625 23.3125 10.5C23.4375 10.375 23.5833 10.3125 23.75 10.3125C23.9167 10.3125 24.0625 10.375 24.1875 10.5C24.3125 10.625 24.375 10.7708 24.375 10.9375C24.375 11.1042 24.3125 11.25 24.1875 11.375C24.0625 11.5 23.9167 11.5625 23.75 11.5625C23.5833 11.5625 23.4375 11.5 23.3125 11.375ZM10.1406 17.3594C9.83854 17.0573 9.6875 16.6875 9.6875 16.25C9.6875 15.8125 9.83854 15.4427 10.1406 15.1406C10.4427 14.8385 10.8125 14.6875 11.25 14.6875C11.6875 14.6875 12.0573 14.8385 12.3594 15.1406C12.6615 15.4427 12.8125 15.8125 12.8125 16.25C12.8125 16.6875 12.6615 17.0573 12.3594 17.3594C12.0573 17.6615 11.6875 17.8125 11.25 17.8125C10.8125 17.8125 10.4427 17.6615 10.1406 17.3594ZM17.6406 17.3594C17.3385 17.0573 17.1875 16.6875 17.1875 16.25C17.1875 15.8125 17.3385 15.4427 17.6406 15.1406C17.9427 14.8385 18.3125 14.6875 18.75 14.6875C19.1875 14.6875 19.5573 14.8385 19.8594 15.1406C20.1615 15.4427 20.3125 15.8125 20.3125 16.25C20.3125 16.6875 20.1615 17.0573 19.8594 17.3594C19.5573 17.6615 19.1875 17.8125 18.75 17.8125C18.3125 17.8125 17.9427 17.6615 17.6406 17.3594ZM15 26.25C13.4519 26.25 11.9947 25.9552 10.6284 25.3656C9.26219 24.776 8.06896 23.9713 7.04875 22.9513C6.02875 21.931 5.22396 20.7378 4.63438 19.3716C4.04479 18.0053 3.75 16.5517 3.75 15.0106C3.75 13.4506 4.04604 11.9864 4.63812 10.6178C5.23042 9.24927 6.03417 8.05458 7.04938 7.03375C8.06458 6.01292 9.2574 5.21042 10.6278 4.62625C11.998 4.04208 13.4528 3.75 14.9922 3.75C16.5503 3.75 18.0136 4.04208 19.3822 4.62625C20.7507 5.21042 21.9454 6.01292 22.9662 7.03375C23.9871 8.05458 24.7896 9.24875 25.3738 10.6162C25.9579 11.9837 26.25 13.445 26.25 15C26.25 16.5413 25.9579 17.9978 25.3738 19.3697C24.7896 20.7418 23.9871 21.9354 22.9662 22.9506C21.9454 23.9658 20.7513 24.7696 19.3838 25.3619C18.0163 25.954 16.555 26.25 15 26.25ZM15 25C17.7917 25 20.1562 24.026 22.0938 22.0781C24.0312 20.1302 25 17.7708 25 15C25 12.2083 24.0312 9.84375 22.0938 7.90625C20.1562 5.96875 17.7917 5 15 5C12.2292 5 9.86979 5.96875 7.92188 7.90625C5.97396 9.84375 5 12.2083 5 15C5 17.7708 5.97396 20.1302 7.92188 22.0781C9.86979 24.026 12.2292 25 15 25Z" fill="black"/>
</g>
</svg>
