<svg width="30" height="30" viewBox="0 0 30 30" fill="none" xmlns="http://www.w3.org/2000/svg">
<mask id="mask0_91_464" style="mask-type:alpha" maskUnits="userSpaceOnUse" x="0" y="0" width="30" height="30">
<rect width="30" height="30" fill="#D9D9D9"/>
</mask>
<g mask="url(#mask0_91_464)">
<path d="M10.1401 19.8605C9.838 19.5585 9.68695 19.1887 9.68695 18.7512C9.68695 18.3137 9.838 17.9439 10.1401 17.6418C10.4422 17.3397 10.812 17.1887 11.2495 17.1887C11.687 17.1887 12.0567 17.3397 12.3588 17.6418C12.6609 17.9439 12.812 18.3137 12.812 18.7512C12.812 19.1887 12.6609 19.5585 12.3588 19.8605C12.0567 20.1626 11.687 20.3137 11.2495 20.3137C10.812 20.3137 10.4422 20.1626 10.1401 19.8605ZM17.6401 19.8605C17.338 19.5585 17.187 19.1887 17.187 18.7512C17.187 18.3137 17.338 17.9439 17.6401 17.6418C17.9422 17.3397 18.312 17.1887 18.7495 17.1887C19.187 17.1887 19.5567 17.3397 19.8588 17.6418C20.1609 17.9439 20.312 18.3137 20.312 18.7512C20.312 19.1887 20.1609 19.5585 19.8588 19.8605C19.5567 20.1626 19.187 20.3137 18.7495 20.3137C18.312 20.3137 17.9422 20.1626 17.6401 19.8605ZM14.9995 27.5012C17.7911 27.5012 20.1557 26.5324 22.0932 24.5949C24.0307 22.6574 24.9995 20.2928 24.9995 17.5012C24.9995 17.0012 24.9682 16.5168 24.9057 16.048C24.8432 15.5793 24.7286 15.1262 24.562 14.6887C24.1245 14.7928 23.687 14.871 23.2495 14.923C22.812 14.9751 22.3536 15.0012 21.8745 15.0012C19.9786 15.0012 18.187 14.5949 16.4995 13.7824C14.812 12.9699 13.3745 11.8345 12.187 10.3762C11.5203 12.0012 10.5672 13.4126 9.32758 14.6105C8.088 15.8085 6.64529 16.7095 4.99945 17.3137V17.5012C4.99945 20.2928 5.9682 22.6574 7.9057 24.5949C9.8432 26.5324 12.2078 27.5012 14.9995 27.5012ZM12.1341 7.89773C13.1533 9.93294 14.5932 11.4173 16.4538 12.3509C18.3145 13.2844 20.1213 13.7512 21.8745 13.7512C22.2624 13.7512 22.6438 13.7316 23.0188 13.6924C23.3938 13.653 23.7672 13.5885 24.1388 13.4987C23.344 11.6397 22.1125 10.1754 20.4441 9.10586C18.7758 8.03607 16.9609 7.50117 14.9995 7.50117C14.4513 7.50117 13.9498 7.53284 13.4948 7.59617C13.0396 7.6595 12.586 7.76003 12.1341 7.89773ZM5.17008 15.8834C6.45695 15.3113 7.7607 14.3738 9.08133 13.0709C10.4017 11.7679 11.1717 10.1301 11.3913 8.15742C9.71987 8.79367 8.33602 9.79523 7.23977 11.1621C6.14372 12.5292 5.45383 14.1029 5.17008 15.8834ZM4.2807 14.3255C4.73591 12.6605 5.53435 11.193 6.67602 9.92305C7.81789 8.65305 9.19737 7.71034 10.8145 7.09492C10.364 6.5293 9.8056 6.07096 9.13914 5.71992C8.47247 5.36888 7.73643 5.19336 6.93102 5.19336C5.54227 5.19336 4.36841 5.67357 3.40945 6.63398C2.45029 7.5944 1.9707 8.77044 1.9707 10.1621C1.9707 11.0379 2.18216 11.8383 2.60508 12.563C3.0282 13.2878 3.58674 13.8753 4.2807 14.3255ZM10.6157 27.8652C9.24633 27.2746 8.05508 26.473 7.04195 25.4605C6.02883 24.448 5.22685 23.2574 4.63602 21.8887C4.04497 20.5199 3.74945 19.0574 3.74945 17.5012C3.74945 17.1726 3.7631 16.8469 3.79039 16.524C3.81768 16.2011 3.86654 15.889 3.93695 15.5877C2.96091 15.0621 2.18091 14.3183 1.59695 13.3562C1.01279 12.3943 0.720703 11.3296 0.720703 10.1621C0.720703 8.43294 1.32487 6.96419 2.5332 5.75586C3.74154 4.54753 5.21029 3.94336 6.93945 3.94336C7.9957 3.94336 8.96727 4.18898 9.85414 4.68023C10.741 5.17148 11.4657 5.82971 12.0282 6.65492C12.5059 6.52034 12.9938 6.4194 13.492 6.35211C13.9901 6.28482 14.4926 6.25117 14.9995 6.25117C16.5557 6.25117 18.0182 6.54638 19.387 7.1368C20.7557 7.72721 21.9463 8.52846 22.9588 9.54055C23.9713 10.5526 24.7729 11.7428 25.3635 13.1112C25.9541 14.4793 26.2495 15.9413 26.2495 17.4971C26.2495 19.0527 25.9542 20.5153 25.3638 21.8849C24.7734 23.2543 23.9722 24.4455 22.9601 25.4587C21.948 26.4718 20.7578 27.2738 19.3895 27.8646C18.0213 28.4557 16.5594 28.7512 15.0035 28.7512C13.4479 28.7512 11.9853 28.4559 10.6157 27.8652Z" fill="black"/>
</g>
</svg>
