<svg width="30" height="30" viewBox="0 0 30 30" fill="none" xmlns="http://www.w3.org/2000/svg">
<mask id="mask0_94_523" style="mask-type:alpha" maskUnits="userSpaceOnUse" x="0" y="0" width="30" height="30">
<rect width="30" height="30" fill="#D9D9D9"/>
</mask>
<g mask="url(#mask0_94_523)">
<path d="M17.6562 17.6562C18.3854 16.9271 18.75 16.0417 18.75 15C18.75 13.9583 18.3854 13.0729 17.6562 12.3438C16.9271 11.6146 16.0417 11.25 15 11.25C13.9583 11.25 13.0729 11.6146 12.3438 12.3438C11.6146 13.0729 11.25 13.9583 11.25 15C11.25 16.0417 11.6146 16.9271 12.3438 17.6562C13.0729 18.3854 13.9583 18.75 15 18.75C16.0417 18.75 16.9271 18.3854 17.6562 17.6562ZM11.4556 18.5444C10.4852 17.5742 10 16.3927 10 15C10 13.6073 10.4852 12.4258 11.4556 11.4556C12.4258 10.4852 13.6073 10 15 10C16.3927 10 17.5742 10.4852 18.5444 11.4556C19.5148 12.4258 20 13.6073 20 15C20 16.3927 19.5148 17.5742 18.5444 18.5444C17.5742 19.5148 16.3927 20 15 20C13.6073 20 12.4258 19.5148 11.4556 18.5444ZM6.25 15.625H1.875V14.375H6.25V15.625ZM28.125 15.625H23.75V14.375H28.125V15.625ZM14.375 6.25V1.875H15.625V6.25H14.375ZM14.375 28.125V23.75H15.625V28.125H14.375ZM8.43281 9.25469L5.73313 6.63219L6.60094 5.70188L9.24031 8.37031L8.43281 9.25469ZM23.3991 24.2981L20.7525 21.6225L21.5672 20.7453L24.2669 23.3678L23.3991 24.2981ZM20.7453 8.43281L23.3678 5.73313L24.2981 6.60094L21.6297 9.24031L20.7453 8.43281ZM5.70188 23.3991L8.3775 20.7525L9.20687 21.5672L6.60813 24.2909L5.70188 23.3991Z" fill="black"/>
</g>
</svg>
