<svg width="30" height="30" viewBox="0 0 30 30" fill="none" xmlns="http://www.w3.org/2000/svg">
<mask id="mask0_72_412" style="mask-type:alpha" maskUnits="userSpaceOnUse" x="0" y="0" width="30" height="30">
<rect width="30" height="30" fill="#D9D9D9"/>
</mask>
<g mask="url(#mask0_72_412)">
<path d="M24.6724 18.7369L23.7446 17.8091C24.6132 16.9549 25.2958 15.9652 25.7924 14.84C26.2893 13.7148 26.5377 12.5193 26.5377 11.2534C26.5377 9.9876 26.2893 8.79375 25.7924 7.67188C25.2958 6.55021 24.6132 5.56229 23.7446 4.70812L24.6724 3.76562C25.6478 4.71896 26.4229 5.84312 26.9977 7.13812C27.5725 8.43312 27.8599 9.80562 27.8599 11.2556C27.8599 12.7054 27.5722 14.0748 26.9968 15.3637C26.4216 16.6525 25.6468 17.7769 24.6724 18.7369ZM20.528 14.5925L19.5859 13.6503C19.9127 13.3282 20.1708 12.9632 20.3599 12.5553C20.5491 12.1474 20.6437 11.7127 20.6437 11.2512C20.6437 10.7577 20.5491 10.315 20.3599 9.92312C20.1708 9.53125 19.9127 9.17427 19.5859 8.85219L20.528 7.91C20.9703 8.33792 21.3229 8.83271 21.5859 9.39437C21.8486 9.95604 21.9799 10.575 21.9799 11.2512C21.9799 11.8954 21.8486 12.5064 21.5859 13.0841C21.3229 13.6618 20.9703 14.1646 20.528 14.5925ZM10.8887 15.0012C9.85742 15.0012 8.97461 14.6358 8.24023 13.905C7.50586 13.1744 7.13867 12.2898 7.13867 11.2512C7.13867 10.2127 7.50409 9.32812 8.23492 8.5975C8.96576 7.86667 9.85034 7.50125 10.8887 7.50125C11.9272 7.50125 12.8118 7.86667 13.5424 8.5975C14.2733 9.32812 14.6387 10.2127 14.6387 11.2512C14.6387 12.2898 14.2715 13.1744 13.5371 13.905C12.8027 14.6358 11.9199 15.0012 10.8887 15.0012ZM2.13867 24.0397V21.9819C2.13867 21.4067 2.28367 20.9092 2.57367 20.4894C2.86388 20.0694 3.27336 19.7352 3.80211 19.4869C4.81648 18.9933 5.94232 18.5871 7.17961 18.2681C8.41669 17.9492 9.65305 17.7897 10.8887 17.7897C12.1243 17.7897 13.3607 17.9492 14.5977 18.2681C15.835 18.5871 16.9609 18.9933 17.9752 19.4869C18.5042 19.7352 18.9137 20.0694 19.2037 20.4894C19.4937 20.9092 19.6387 21.4067 19.6387 21.9819V24.0397H2.13867ZM3.38867 22.7897H18.3887V21.9819C18.3887 21.6406 18.2914 21.3602 18.0968 21.1406C17.902 20.921 17.6627 20.7352 17.379 20.5831C16.5971 20.176 15.6176 19.817 14.4405 19.5059C13.2635 19.1951 12.0795 19.0397 10.8887 19.0397C9.69805 19.0397 8.51419 19.1951 7.33711 19.5059C6.16003 19.817 5.18044 20.176 4.39836 20.5831C4.11461 20.7352 3.87544 20.921 3.68086 21.1406C3.48607 21.3602 3.38867 21.6406 3.38867 21.9819V22.7897ZM12.6543 13.0169C13.1439 12.5273 13.3887 11.9387 13.3887 11.2512C13.3887 10.5637 13.1439 9.97521 12.6543 9.48562C12.1647 8.99604 11.5762 8.75125 10.8887 8.75125C10.2012 8.75125 9.61263 8.99604 9.12305 9.48562C8.63346 9.97521 8.38867 10.5637 8.38867 11.2512C8.38867 11.9387 8.63346 12.5273 9.12305 13.0169C9.61263 13.5065 10.2012 13.7512 10.8887 13.7512C11.5762 13.7512 12.1647 13.5065 12.6543 13.0169Z" fill="black"/>
</g>
</svg>
