<svg width="30" height="30" viewBox="0 0 30 30" fill="none" xmlns="http://www.w3.org/2000/svg">
<mask id="mask0_512_26005" style="mask-type:alpha" maskUnits="userSpaceOnUse" x="0" y="0" width="30" height="30">
<path d="M0 0H30V30H0V0Z" fill="#D9D9D9"/>
</mask>
<g mask="url(#mask0_512_26005)">
<path d="M15 27.3942L11.3359 23.7498H6.25V18.6639L2.60563 14.9998L6.25 11.3358V6.24984H11.3359L15 2.60547L18.6641 6.24984H23.75V11.3358L27.3944 14.9998L23.75 18.6639V23.7498H18.6641L15 27.3942ZM15 25.6248L18.125 22.4998H22.5V18.1248L25.625 14.9998L22.5 11.8748V7.49984H18.125L15 4.37484L11.875 7.49984H7.5V11.8748L4.375 14.9998L7.5 18.1248V22.4998H11.875L15 25.6248Z" fill="black"/>
</g>
</svg>
