<svg width="30" height="30" viewBox="0 0 30 30" fill="none" xmlns="http://www.w3.org/2000/svg">
<mask id="mask0_83_797" style="mask-type:alpha" maskUnits="userSpaceOnUse" x="0" y="0" width="30" height="30">
<rect width="30" height="30" fill="#D9D9D9"/>
</mask>
<g mask="url(#mask0_83_797)">
<path d="M12.5722 13.8666C13.0753 13.3674 13.4415 12.7684 13.6706 12.0697L12.6034 11.8006C12.4511 12.259 12.2207 12.6583 11.9122 12.9988C11.6036 13.3394 11.2147 13.5097 10.7453 13.5097C10.2757 13.5097 9.88667 13.3394 9.57812 12.9988C9.26958 12.6583 9.03917 12.259 8.88688 11.8006L7.81969 12.0697C8.04885 12.7684 8.415 13.3674 8.91813 13.8666C9.42146 14.3657 10.0305 14.6153 10.7453 14.6153C11.4599 14.6153 12.0689 14.3657 12.5722 13.8666ZM15 21.4903C15.7163 21.4903 16.4014 21.3401 17.0553 21.0397C17.7091 20.7393 18.3189 20.2966 18.8847 19.7116L18.0866 18.9663C17.6122 19.4183 17.1146 19.7625 16.5938 19.9987C16.0729 20.2352 15.5417 20.3534 15 20.3534C14.4583 20.3534 13.9271 20.2352 13.4062 19.9987C12.8854 19.7625 12.3878 19.4183 11.9134 18.9663L11.1153 19.7116C11.702 20.3126 12.321 20.7593 12.9725 21.0516C13.6237 21.3441 14.2996 21.4903 15 21.4903ZM21.0819 13.8666C21.585 13.3674 21.9511 12.7684 22.1803 12.0697L21.1131 11.8006C20.9608 12.259 20.7304 12.6583 20.4219 12.9988C20.1133 13.3394 19.7243 13.5097 19.2547 13.5097C18.7853 13.5097 18.3964 13.3394 18.0878 12.9988C17.7793 12.6583 17.5489 12.259 17.3966 11.8006L16.3294 12.0697C16.5585 12.7684 16.9247 13.3674 17.4278 13.8666C17.9311 14.3657 18.5401 14.6153 19.2547 14.6153C19.9695 14.6153 20.5785 14.3657 21.0819 13.8666ZM10.6178 25.3619C9.24927 24.7696 8.05854 23.9671 7.04563 22.9544C6.03292 21.9415 5.23042 20.7507 4.63812 19.3822C4.04604 18.0136 3.75 16.5529 3.75 15C3.75 13.4471 4.04604 11.9864 4.63812 10.6178C5.23042 9.24927 6.03292 8.05854 7.04563 7.04563C8.05854 6.03292 9.24927 5.23042 10.6178 4.63812C11.9864 4.04604 13.4471 3.75 15 3.75C16.5529 3.75 18.0136 4.04604 19.3822 4.63812C20.7507 5.23042 21.9415 6.03292 22.9544 7.04563C23.9671 8.05854 24.7696 9.24927 25.3619 10.6178C25.954 11.9864 26.25 13.4471 26.25 15C26.25 16.5529 25.954 18.0136 25.3619 19.3822C24.7696 20.7507 23.9671 21.9415 22.9544 22.9544C21.9415 23.9671 20.7507 24.7696 19.3822 25.3619C18.0136 25.954 16.5529 26.25 15 26.25C13.4471 26.25 11.9864 25.954 10.6178 25.3619ZM22.0938 22.0938C24.0312 20.1562 25 17.7917 25 15C25 12.2083 24.0312 9.84375 22.0938 7.90625C20.1562 5.96875 17.7917 5 15 5C12.2083 5 9.84375 5.96875 7.90625 7.90625C5.96875 9.84375 5 12.2083 5 15C5 17.7917 5.96875 20.1562 7.90625 22.0938C9.84375 24.0312 12.2083 25 15 25C17.7917 25 20.1562 24.0312 22.0938 22.0938Z" fill="black"/>
</g>
</svg>
