<svg width="30" height="30" viewBox="0 0 30 30" fill="none" xmlns="http://www.w3.org/2000/svg">
<mask id="mask0_83_804" style="mask-type:alpha" maskUnits="userSpaceOnUse" x="0" y="0" width="30" height="30">
<rect width="30" height="30" fill="#D9D9D9"/>
</mask>
<g mask="url(#mask0_83_804)">
<path d="M10.3847 15.3847V17.5C10.3847 18.7788 10.8342 19.8677 11.7331 20.7669C12.6323 21.6658 13.7212 22.1153 15 22.1153C16.2788 22.1153 17.3677 21.6658 18.2669 20.7669C19.1658 19.8677 19.6153 18.7788 19.6153 17.5V15.3847H10.3847ZM15 21.0097C14.0288 21.0097 13.201 20.6675 12.5169 19.9831C11.8325 19.299 11.4903 18.4712 11.4903 17.5V16.4903H18.5097V17.5C18.5097 18.4712 18.1675 19.299 17.4831 19.9831C16.799 20.6675 15.9712 21.0097 15 21.0097ZM8.86406 9.81375C8.3376 10.2665 7.94938 10.8886 7.69938 11.6803L8.76688 11.9494C8.94 11.4398 9.1924 11.0316 9.52406 10.7247C9.85573 10.4178 10.2227 10.2564 10.625 10.2403C11.0273 10.2564 11.3943 10.4178 11.7259 10.7247C12.0576 11.0316 12.31 11.4398 12.4831 11.9494L13.5506 11.6803C13.3006 10.8886 12.9124 10.2665 12.3859 9.81375C11.8595 9.36104 11.2725 9.13469 10.625 9.13469C9.9775 9.13469 9.39052 9.36104 8.86406 9.81375ZM17.6141 9.81375C17.0876 10.2665 16.6994 10.8886 16.4494 11.6803L17.5169 11.9494C17.69 11.4238 17.9383 11.0075 18.2619 10.7006C18.5856 10.3937 18.9567 10.2403 19.375 10.2403C19.7933 10.2403 20.1644 10.3937 20.4881 10.7006C20.8117 11.0075 21.06 11.4238 21.2331 11.9494L22.3006 11.6803C22.0506 10.8886 21.6624 10.2665 21.1359 9.81375C20.6095 9.36104 20.0225 9.13469 19.375 9.13469C18.7275 9.13469 18.1405 9.36104 17.6141 9.81375ZM10.6178 25.3619C9.24927 24.7696 8.05854 23.9671 7.04563 22.9544C6.03292 21.9415 5.23042 20.7507 4.63812 19.3822C4.04604 18.0136 3.75 16.5529 3.75 15C3.75 13.4471 4.04604 11.9864 4.63812 10.6178C5.23042 9.24927 6.03292 8.05854 7.04563 7.04563C8.05854 6.03292 9.24927 5.23042 10.6178 4.63812C11.9864 4.04604 13.4471 3.75 15 3.75C16.5529 3.75 18.0136 4.04604 19.3822 4.63812C20.7507 5.23042 21.9415 6.03292 22.9544 7.04563C23.9671 8.05854 24.7696 9.24927 25.3619 10.6178C25.954 11.9864 26.25 13.4471 26.25 15C26.25 16.5529 25.954 18.0136 25.3619 19.3822C24.7696 20.7507 23.9671 21.9415 22.9544 22.9544C21.9415 23.9671 20.7507 24.7696 19.3822 25.3619C18.0136 25.954 16.5529 26.25 15 26.25C13.4471 26.25 11.9864 25.954 10.6178 25.3619ZM22.0938 22.0938C24.0312 20.1562 25 17.7917 25 15C25 12.2083 24.0312 9.84375 22.0938 7.90625C20.1562 5.96875 17.7917 5 15 5C12.2083 5 9.84375 5.96875 7.90625 7.90625C5.96875 9.84375 5 12.2083 5 15C5 17.7917 5.96875 20.1562 7.90625 22.0938C9.84375 24.0312 12.2083 25 15 25C17.7917 25 20.1562 24.0312 22.0938 22.0938Z" fill="black"/>
</g>
</svg>
