<svg width="30" height="30" viewBox="0 0 30 30" fill="none" xmlns="http://www.w3.org/2000/svg">
<mask id="mask0_83_802" style="mask-type:alpha" maskUnits="userSpaceOnUse" x="0" y="0" width="30" height="30">
<rect width="30" height="30" fill="#D9D9D9"/>
</mask>
<g mask="url(#mask0_83_802)">
<path d="M8.19719 20H9.30281V19.6875C9.30281 18.1121 9.85854 16.7688 10.97 15.6575C12.0813 14.546 13.4246 13.9903 15 13.9903C16.5754 13.9903 17.9188 14.546 19.03 15.6575C20.1415 16.7688 20.6972 18.1121 20.6972 19.6875V20H21.8028V19.6875C21.8028 17.7946 21.1428 16.1875 19.8228 14.8663C18.5026 13.5452 16.8968 12.8847 15.0053 12.8847C13.1139 12.8847 11.5064 13.5452 10.1828 14.8663C8.85906 16.1875 8.19719 17.7946 8.19719 19.6875V20ZM9.21156 11.1056C9.92156 10.9488 10.6544 10.6555 11.41 10.2259C12.1654 9.79656 12.7924 9.31021 13.2909 8.76687L12.4303 8.06C12.0136 8.49604 11.4876 8.89427 10.8522 9.25469C10.2168 9.61531 9.61865 9.86375 9.05781 10L9.21156 11.1056ZM20.7884 11.1056L20.9422 10C20.3653 9.84771 19.7632 9.59531 19.1359 9.24281C18.5084 8.89031 17.9864 8.49604 17.5697 8.06L16.7091 8.76687C17.2076 9.29417 17.8346 9.77656 18.59 10.2141C19.3456 10.6516 20.0784 10.9488 20.7884 11.1056ZM10.6163 25.3644C9.24687 24.774 8.05562 23.9727 7.0425 22.9606C6.02938 21.9485 5.2274 20.7583 4.63656 19.39C4.04552 18.0219 3.75 16.5599 3.75 15.0041C3.75 13.4484 4.04521 11.9858 4.63562 10.6162C5.22604 9.24687 6.02729 8.05562 7.03938 7.0425C8.05146 6.02937 9.24167 5.2274 10.61 4.63656C11.9781 4.04552 13.4401 3.75 14.9959 3.75C16.5516 3.75 18.0142 4.04521 19.3838 4.63563C20.7531 5.22604 21.9444 6.02729 22.9575 7.03938C23.9706 8.05146 24.7726 9.24167 25.3634 10.61C25.9545 11.9781 26.25 13.4401 26.25 14.9959C26.25 16.5516 25.9548 18.0142 25.3644 19.3837C24.774 20.7531 23.9727 21.9444 22.9606 22.9575C21.9485 23.9706 20.7583 24.7726 19.39 25.3634C18.0219 25.9545 16.5599 26.25 15.0041 26.25C13.4484 26.25 11.9858 25.9548 10.6163 25.3644ZM22.0938 22.0938C24.0312 20.1562 25 17.7917 25 15C25 12.2083 24.0312 9.84375 22.0938 7.90625C20.1562 5.96875 17.7917 5 15 5C12.2083 5 9.84375 5.96875 7.90625 7.90625C5.96875 9.84375 5 12.2083 5 15C5 17.7917 5.96875 20.1562 7.90625 22.0938C9.84375 24.0312 12.2083 25 15 25C17.7917 25 20.1562 24.0312 22.0938 22.0938Z" fill="black"/>
</g>
</svg>
