<svg width="30" height="30" viewBox="0 0 30 30" fill="none" xmlns="http://www.w3.org/2000/svg">
<mask id="mask0_48_267" style="mask-type:alpha" maskUnits="userSpaceOnUse" x="0" y="0" width="30" height="30">
<rect width="30" height="30" fill="#D9D9D9"/>
</mask>
<g mask="url(#mask0_48_267)">
<path d="M12.6682 26.25L12.2163 22.6347C11.8174 22.5145 11.3859 22.3253 10.922 22.0672C10.458 21.8093 10.0634 21.5329 9.7382 21.2381L6.40383 22.6562L4.07227 18.5938L6.95445 16.4206C6.91758 16.1948 6.88716 15.9621 6.8632 15.7225C6.83904 15.4829 6.82695 15.2501 6.82695 15.0241C6.82695 14.8141 6.83904 14.5933 6.8632 14.3619C6.88716 14.1302 6.91758 13.8694 6.95445 13.5794L4.07227 11.4062L6.40383 7.39187L9.71414 8.78594C10.0875 8.47511 10.4913 8.19469 10.9257 7.94469C11.3599 7.69469 11.7821 7.50156 12.1923 7.36531L12.6682 3.75H17.332L17.7838 7.38938C18.263 7.55771 18.6864 7.75083 19.0541 7.96875C19.4218 8.18667 19.8005 8.45906 20.1901 8.78594L23.5963 7.39187L25.9279 11.4062L22.9495 13.6516C23.0184 13.9095 23.057 14.1462 23.0651 14.3619C23.073 14.5773 23.077 14.79 23.077 15C23.077 15.194 23.0689 15.3986 23.0529 15.6141C23.0368 15.8297 23 16.0905 22.9423 16.3966L25.8726 18.5938L23.541 22.6562L20.1901 21.2141C19.8005 21.5409 19.4086 21.8214 19.0145 22.0553C18.6203 22.2893 18.2101 22.4744 17.7838 22.6106L17.332 26.25H12.6682ZM13.7501 25H16.1948L16.6563 21.6153C17.2861 21.4486 17.853 21.2199 18.357 20.9291C18.8611 20.6382 19.3743 20.2396 19.8966 19.7331L23.0145 21.0625L24.2573 18.9375L21.5216 16.8822C21.6258 16.5264 21.6948 16.1991 21.7285 15.9003C21.7621 15.6014 21.7788 15.3013 21.7788 15C21.7788 14.6827 21.7621 14.3826 21.7285 14.0997C21.6948 13.817 21.6258 13.5057 21.5216 13.1659L24.3054 11.0625L23.0626 8.9375L19.8726 10.2741C19.4945 9.85906 18.9973 9.47 18.381 9.10687C17.765 8.74396 17.1821 8.50323 16.6323 8.38469L16.2501 5H13.7573L13.3679 8.36062C12.7381 8.49521 12.1591 8.71198 11.631 9.01094C11.1031 9.30969 10.5779 9.72031 10.0554 10.2428L6.93758 8.9375L5.69477 11.0625L8.40633 13.0866C8.30216 13.367 8.22925 13.6715 8.18758 14C8.14591 14.3285 8.12508 14.6699 8.12508 15.0241C8.12508 15.3414 8.14591 15.6563 8.18758 15.9688C8.22925 16.2813 8.29414 16.5857 8.38227 16.8822L5.69477 18.9375L6.93758 21.0625L10.0313 19.75C10.5217 20.2452 11.0309 20.6423 11.5588 20.9412C12.087 21.24 12.682 21.4727 13.3438 21.6394L13.7501 25ZM14.9663 18.125C15.8382 18.125 16.5771 17.8221 17.1829 17.2163C17.7885 16.6106 18.0913 15.8719 18.0913 15C18.0913 14.1281 17.7885 13.3894 17.1829 12.7838C16.5771 12.1779 15.8382 11.875 14.9663 11.875C14.0899 11.875 13.3499 12.1779 12.7463 12.7838C12.143 13.3894 11.8413 14.1281 11.8413 15C11.8413 15.8719 12.143 16.6106 12.7463 17.2163C13.3499 17.8221 14.0899 18.125 14.9663 18.125Z" fill="black"/>
</g>
</svg>
