<svg width="30" height="30" viewBox="0 0 30 30" fill="none" xmlns="http://www.w3.org/2000/svg">
<mask id="mask0_694_30894" style="mask-type:alpha" maskUnits="userSpaceOnUse" x="0" y="0" width="30" height="30">
<rect width="30" height="30" fill="#D9D9D9"/>
</mask>
<g mask="url(#mask0_694_30894)">
<path d="M6.29814 18.8703L2.47595 15.0481L3.23564 14.2644L5.71158 16.7403C5.52241 16.0176 5.38054 15.2908 5.28595 14.56C5.19158 13.8294 5.14439 13.0946 5.14439 12.3556C5.14439 10.7917 5.39751 9.27969 5.90376 7.81969C6.41022 6.35969 7.13866 5.00312 8.08908 3.75L8.8797 4.54094C8.04804 5.69156 7.40189 6.92917 6.94126 8.25375C6.48043 9.57812 6.25001 10.9454 6.25001 12.3556C6.25001 13.1056 6.29731 13.8504 6.39189 14.59C6.48647 15.3296 6.63866 16.056 6.84845 16.7694L9.36064 14.2644L10.1203 15.0481L6.29814 18.8703ZM20.3703 24.7572C19.9872 24.8918 19.5869 24.9539 19.1694 24.9434C18.7519 24.933 18.3541 24.8373 17.976 24.6562L10.0769 20.9881L10.4472 20.2428C10.5753 20.0184 10.7427 19.8401 10.9494 19.7078C11.1563 19.5757 11.3847 19.4969 11.6347 19.4712L15.2019 19.0744L11.6297 9.3125C11.5689 9.13937 11.5753 8.97792 11.6491 8.82812C11.7228 8.67833 11.8463 8.57292 12.0194 8.51187C12.1923 8.45104 12.3538 8.4575 12.5038 8.53125C12.6536 8.605 12.7589 8.72844 12.8197 8.90156L16.94 20.2259L12.2525 20.6369L18.5097 23.5287C18.7195 23.6233 18.9519 23.6799 19.2069 23.6984C19.4617 23.7168 19.702 23.681 19.9278 23.5912L24.2331 22.0266C25.0552 21.7332 25.6481 21.1968 26.0119 20.4172C26.3758 19.6374 26.4112 18.8365 26.1178 18.0144L24.3991 13.3269C24.3382 13.1537 24.3406 12.9923 24.4063 12.8425C24.4719 12.6927 24.5913 12.5874 24.7644 12.5266C24.9375 12.4655 25.099 12.4679 25.2488 12.5337C25.3986 12.5994 25.504 12.7187 25.565 12.8919L27.2838 17.5794C27.7148 18.7317 27.676 19.8515 27.1672 20.9388C26.6582 22.026 25.8277 22.7772 24.6756 23.1922L20.3703 24.7572ZM18.1588 16.9328L16.4472 12.2141C16.3862 12.0409 16.3925 11.8795 16.4663 11.7297C16.54 11.5797 16.6635 11.4743 16.8366 11.4134C17.0097 11.3526 17.1712 11.3591 17.321 11.4328C17.4707 11.5064 17.5761 11.6297 17.6369 11.8028L19.3556 16.4903L18.1588 16.9328ZM21.4975 15.6994L20.2163 12.1681C20.1554 11.9952 20.1619 11.8378 20.2356 11.6959C20.3094 11.5541 20.4327 11.4527 20.6056 11.3919C20.7788 11.331 20.9402 11.3334 21.09 11.3991C21.24 11.4647 21.3454 11.5841 21.4063 11.7572L22.6875 15.2812L21.4975 15.6994Z" fill="black"/>
</g>
</svg>
