<svg width="30" height="30" viewBox="0 0 30 30" fill="none" xmlns="http://www.w3.org/2000/svg">
<mask id="mask0_694_30895" style="mask-type:alpha" maskUnits="userSpaceOnUse" x="0" y="0" width="30" height="30">
<rect width="30" height="30" fill="#D9D9D9"/>
</mask>
<g mask="url(#mask0_694_30895)">
<path d="M8.08908 17.4032C7.13866 16.1501 6.41022 14.7935 5.90376 13.3335C5.39751 11.8737 5.14439 10.3617 5.14439 8.79758C5.14439 8.05883 5.19158 7.32404 5.28595 6.5932C5.38054 5.86237 5.52241 5.1356 5.71158 4.41289L3.23564 6.88883L2.47595 6.10508L6.29814 2.2832L10.1203 6.10508L9.36064 6.88883L6.84845 4.38414C6.63866 5.09727 6.48647 5.82362 6.39189 6.5632C6.29731 7.30279 6.25001 8.04758 6.25001 8.79758C6.25001 10.2078 6.48043 11.5752 6.94126 12.8998C7.40189 14.2241 8.04804 15.4617 8.8797 16.6126L8.08908 17.4032ZM20.3703 24.7566C19.9872 24.8912 19.5869 24.9533 19.1694 24.9429C18.7519 24.9325 18.3541 24.8367 17.976 24.6557L10.0769 20.9876L10.4472 20.2423C10.5753 20.0179 10.7427 19.8396 10.9494 19.7073C11.1563 19.5752 11.3847 19.4963 11.6347 19.4707L15.2019 19.0738L11.6297 9.31195C11.5689 9.13883 11.5753 8.97737 11.6491 8.82758C11.7228 8.67779 11.8463 8.57237 12.0194 8.51133C12.1923 8.45049 12.3538 8.45695 12.5038 8.5307C12.6536 8.60445 12.7589 8.72789 12.8197 8.90101L16.94 20.2254L12.2525 20.6363L18.5097 23.5282C18.7195 23.6228 18.9519 23.6793 19.2069 23.6979C19.4617 23.7162 19.702 23.6805 19.9278 23.5907L24.2331 22.026C25.0552 21.7327 25.6481 21.1962 26.0119 20.4166C26.3758 19.6369 26.4112 18.8359 26.1178 18.0138L24.3991 13.3263C24.3382 13.1532 24.3406 12.9917 24.4063 12.842C24.4719 12.6922 24.5913 12.5868 24.7644 12.526C24.9375 12.465 25.099 12.4674 25.2488 12.5332C25.3986 12.5988 25.504 12.7182 25.565 12.8913L27.2838 17.5788C27.7148 18.7311 27.676 19.8509 27.1672 20.9382C26.6582 22.0255 25.8277 22.7766 24.6756 23.1916L20.3703 24.7566ZM18.1588 16.9323L16.4472 12.2135C16.3862 12.0404 16.3925 11.8789 16.4663 11.7291C16.54 11.5791 16.6635 11.4737 16.8366 11.4129C17.0097 11.3521 17.1712 11.3585 17.321 11.4323C17.4707 11.5058 17.5761 11.6291 17.6369 11.8023L19.3556 16.4898L18.1588 16.9323ZM21.4975 15.6988L20.2163 12.1676C20.1554 11.9947 20.1619 11.8373 20.2356 11.6954C20.3094 11.5535 20.4327 11.4522 20.6056 11.3913C20.7788 11.3305 20.9402 11.3329 21.09 11.3985C21.24 11.4641 21.3454 11.5835 21.4063 11.7566L22.6875 15.2807L21.4975 15.6988Z" fill="black"/>
</g>
</svg>
