<svg width="30" height="30" viewBox="0 0 30 30" fill="none" xmlns="http://www.w3.org/2000/svg">
<mask id="mask0_736_32538" style="mask-type:alpha" maskUnits="userSpaceOnUse" x="0" y="0" width="30" height="30">
<rect width="30" height="30" fill="#D9D9D9"/>
</mask>
<g mask="url(#mask0_736_32538)">
<path d="M7.18359 10.0117C7.08063 10.0041 6.97708 10 6.87305 10C5.4928 10 4.31462 10.4882 3.33887 11.4648C2.36303 12.4419 1.875 13.622 1.875 15.0039C1.87504 16.3859 2.36315 17.5638 3.33887 18.5381C4.31468 19.5124 5.49266 20 6.87305 20C7.39662 20 7.90681 19.9041 8.40332 19.7119C8.90018 19.5196 9.34763 19.2546 9.74512 18.918L13.0781 15.9062L13.9492 16.7773L10.5674 19.832C10.0691 20.2999 9.50181 20.6529 8.86621 20.8916C8.23059 21.1304 7.56687 21.25 6.875 21.25C5.13258 21.25 3.65541 20.6442 2.44336 19.4326C1.23128 18.221 0.625 16.7438 0.625 15.002C0.625054 13.2602 1.23133 11.7824 2.44336 10.5693C3.44199 9.56997 4.62084 8.98358 5.97949 8.80762L7.18359 10.0117ZM23.125 8.75C24.8674 8.75 26.3446 9.35583 27.5566 10.5674C28.7687 11.779 29.375 13.2562 29.375 14.998C29.3749 16.7398 28.7687 18.2176 27.5566 19.4307C26.3553 20.6329 24.8933 21.2375 23.1709 21.248L21.6748 19.752C22.1469 19.9161 22.6305 20 23.127 20C24.5072 20 25.6854 19.5118 26.6611 18.5352C27.637 17.5581 28.125 16.378 28.125 14.9961C28.125 13.6141 27.6369 12.4362 26.6611 11.4619C25.6853 10.4876 24.5073 10 23.127 10C22.6034 10 22.0932 10.0959 21.5967 10.2881C21.0998 10.4804 20.6524 10.7454 20.2549 11.082L16.4453 14.5225L15.5742 13.6523L19.4326 10.168C19.9309 9.70007 20.4982 9.34715 21.1338 9.1084C21.7694 8.86965 22.4331 8.75 23.125 8.75Z" fill="black"/>
<rect x="2" y="4.82812" width="1" height="32" transform="rotate(-45 2 4.82812)" fill="black"/>
</g>
</svg>
