<svg width="30" height="30" viewBox="0 0 30 30" fill="none" xmlns="http://www.w3.org/2000/svg">
<mask id="mask0_736_32522" style="mask-type:alpha" maskUnits="userSpaceOnUse" x="0" y="0" width="30" height="30">
<rect width="30" height="30" fill="#D9D9D9"/>
</mask>
<g mask="url(#mask0_736_32522)">
<path d="M13.8906 24.8594C13.5885 24.5573 13.4375 24.1875 13.4375 23.75C13.4375 23.3125 13.5885 22.9427 13.8906 22.6406C14.1927 22.3385 14.5625 22.1875 15 22.1875C15.4375 22.1875 15.8073 22.3385 16.1094 22.6406C16.4115 22.9427 16.5625 23.3125 16.5625 23.75C16.5625 24.1875 16.4115 24.5573 16.1094 24.8594C15.8073 25.1615 15.4375 25.3125 15 25.3125C14.5625 25.3125 14.1927 25.1615 13.8906 24.8594ZM7.9375 19.1875L7.0625 18.3125C8.10417 17.2708 9.29688 16.4583 10.6406 15.875C11.9844 15.2917 13.4375 15 15 15C16.5625 15 18.0156 15.2917 19.3594 15.875C20.7031 16.4583 21.8958 17.2708 22.9375 18.3125L22.0625 19.1875C21.1458 18.2708 20.0833 17.5521 18.875 17.0312C17.6667 16.5104 16.375 16.25 15 16.25C13.625 16.25 12.3333 16.5104 11.125 17.0312C9.91667 17.5521 8.85417 18.2708 7.9375 19.1875ZM2.625 13.875L1.75 13C3.4375 11.3125 5.40625 9.97396 7.65625 8.98438C9.90625 7.99479 12.3542 7.5 15 7.5C17.6458 7.5 20.0938 7.99479 22.3438 8.98438C24.5938 9.97396 26.5625 11.3125 28.25 13L27.375 13.875C25.7708 12.2708 23.9115 11.0156 21.7969 10.1094C19.6823 9.20313 17.4167 8.75 15 8.75C12.5833 8.75 10.3177 9.20313 8.20312 10.1094C6.08854 11.0156 4.22917 12.2708 2.625 13.875Z" fill="black"/>
</g>
</svg>
