<svg width="30" height="30" viewBox="0 0 30 30" fill="none" xmlns="http://www.w3.org/2000/svg">
<mask id="mask0_736_32523" style="mask-type:alpha" maskUnits="userSpaceOnUse" x="0" y="0" width="30" height="30">
<rect width="30" height="30" fill="#D9D9D9"/>
</mask>
<g mask="url(#mask0_736_32523)">
<path d="M24.9375 26.25L15 16.25C13.6458 16.25 12.3438 16.5104 11.0938 17.0312C9.84375 17.5521 8.79167 18.2708 7.9375 19.1875L7.0625 18.3125C7.91667 17.4583 8.93229 16.7292 10.1094 16.125C11.2865 15.5208 12.5208 15.1667 13.8125 15.0625L8.6875 9.9375C7.70833 10.2917 6.66667 10.8229 5.5625 11.5313C4.45833 12.2396 3.47917 13.0208 2.625 13.875L1.8125 13C2.6875 12.125 3.65104 11.3229 4.70312 10.5938C5.75521 9.86458 6.75 9.3125 7.6875 8.9375L4.75 6L5.375 5.375L25.625 25.625L24.9375 26.25ZM13.8906 24.8594C13.5885 24.5573 13.4375 24.1875 13.4375 23.75C13.4375 23.3125 13.5885 22.9427 13.8906 22.6406C14.1927 22.3385 14.5625 22.1875 15 22.1875C15.4375 22.1875 15.8073 22.3385 16.1094 22.6406C16.4115 22.9427 16.5625 23.3125 16.5625 23.75C16.5625 24.1875 16.4115 24.5573 16.1094 24.8594C15.8073 25.1615 15.4375 25.3125 15 25.3125C14.5625 25.3125 14.1927 25.1615 13.8906 24.8594ZM22.375 18.8125L19.5 15.9375C19.9167 16.1042 20.4427 16.3802 21.0781 16.7656C21.7135 17.151 22.3333 17.6458 22.9375 18.25L22.375 18.8125ZM27.375 13.875C25.7708 12.2708 23.9115 11.0156 21.7969 10.1094C19.6823 9.20313 17.4167 8.75 15 8.75C14.5625 8.75 14.125 8.76562 13.6875 8.79687C13.25 8.82812 12.8542 8.875 12.5 8.9375L11.375 7.8125C11.8125 7.70833 12.3229 7.63021 12.9062 7.57813C13.4896 7.52604 14.1875 7.5 15 7.5C17.6042 7.5 20.0312 7.98437 22.2812 8.95312C24.5313 9.92187 26.5208 11.2708 28.25 13L27.375 13.875Z" fill="black"/>
</g>
</svg>
