<svg width="25" height="26" viewBox="0 0 25 26" fill="none" xmlns="http://www.w3.org/2000/svg">
<path d="M10.2381 2.86161C10.3674 1.66443 11.338 1 12.5 1C13.662 1 14.6326 1.66443 14.7619 2.8616C15.0672 5.6885 18.166 7.24564 20.7435 6.16033C22.0415 5.61375 23.1489 6.16149 23.6818 7.02514C23.9509 7.4613 24.0526 7.94933 23.9742 8.3943C23.8989 8.82158 23.6448 9.28716 23.0526 9.68631C20.6516 11.3048 20.6516 14.6952 23.0526 16.3137C23.6448 16.7128 23.8989 17.1784 23.9742 17.6057C24.0526 18.0507 23.9509 18.5387 23.6818 18.9749C23.1489 19.8385 22.0415 20.3862 20.7435 19.8397C18.166 18.7544 15.0672 20.3115 14.7619 23.1384C14.6326 24.3356 13.662 25 12.5 25C11.338 25 10.3674 24.3356 10.2381 23.1384C9.93275 20.3115 6.83398 18.7544 4.25651 19.8397L4.64459 20.7613L4.25651 19.8397C2.95846 20.3862 1.85114 19.8385 1.31822 18.9749C1.04908 18.5387 0.947447 18.0507 1.02584 17.6057C1.10111 17.1784 1.35522 16.7128 1.94738 16.3137C4.34839 14.6952 4.34839 11.3048 1.94738 9.68631C1.35522 9.28716 1.10111 8.82158 1.02584 8.3943C0.947447 7.94933 1.04908 7.4613 1.31822 7.02514C1.85115 6.16149 2.95846 5.61375 4.25651 6.16033C6.83397 7.24564 9.93275 5.6885 10.2381 2.86161ZM12.5 18.7895C15.723 18.7895 18.3611 16.2114 18.3611 13C18.3611 9.78862 15.723 7.21053 12.5 7.21053C9.27705 7.21053 6.63889 9.78862 6.63889 13C6.63889 16.2114 9.27705 18.7895 12.5 18.7895Z" stroke="black" stroke-width="2"/>
</svg>
