<svg width="26" height="26" viewBox="0 0 26 26" fill="none" xmlns="http://www.w3.org/2000/svg">
<path fill-rule="evenodd" clip-rule="evenodd" d="M24 13C24 19.0751 19.0752 24 13 24C6.9248 24 2 19.0751 2 13C2 6.92493 6.9248 2 13 2C19.0752 2 24 6.92493 24 13ZM26 13C26 20.1797 20.1797 26 13 26C5.82031 26 0 20.1797 0 13C0 5.82031 5.82031 0 13 0C20.1797 0 26 5.82031 26 13ZM9.51953 15.2119C8.82861 13.8152 8.82861 12.1765 9.51953 10.7798L12.104 5.55237C12.4707 4.81006 13.5298 4.81006 13.8965 5.55237L16.4814 10.7798C17.1719 12.1765 17.1719 13.8152 16.4814 15.2119L13.8965 20.4393C13.5298 21.1816 12.4707 21.1816 12.104 20.4393L9.51953 15.2119ZM14.5254 12.9956C14.5254 13.8477 13.8428 14.5383 13 14.5383C12.1577 14.5383 11.4746 13.8477 11.4746 12.9956C11.4746 12.1436 12.1577 11.4529 13 11.4529C13.8428 11.4529 14.5254 12.1436 14.5254 12.9956Z" fill="black"/>
</svg>
