<svg width="580" height="580" viewBox="0 0 580 580" fill="none" xmlns="http://www.w3.org/2000/svg">
<g filter="url(#filter0_d_717_2893)">
<path d="M272.837 32.1103C282.828 23.9632 297.171 23.9632 307.161 32.1103L328.703 49.6767C335.483 55.2038 344.51 57.1282 352.952 54.8462L379.715 47.6138C392.144 44.2552 405.221 50.0839 411.032 61.5704L423.678 86.5742C427.616 94.3553 435.048 99.7727 443.661 101.137L471.166 105.494C483.839 107.501 493.378 118.105 494.035 130.917L495.483 159.126C495.928 167.799 500.498 175.737 507.775 180.479L531.307 195.815C542.023 202.8 546.411 216.317 541.838 228.263L531.715 254.715C528.616 262.807 529.569 271.892 534.275 279.166L549.645 302.913C556.588 313.645 555.106 327.765 546.082 336.822L526.178 356.802C520.057 362.946 517.239 371.642 518.596 380.208L523.025 408.169C525.027 420.818 517.915 433.147 505.961 437.751L479.866 447.797C471.744 450.924 465.613 457.753 463.378 466.163L456.152 493.362C452.853 505.786 441.293 514.191 428.457 513.504L400.735 512.022C392.011 511.555 383.596 515.313 378.121 522.119L360.639 543.86C352.564 553.903 338.541 556.887 327.074 551.001L302.401 538.335C294.616 534.342 285.383 534.342 277.599 538.335L252.925 551.001C241.459 556.887 227.436 553.903 219.361 543.86L201.878 522.119C196.404 515.313 187.989 511.555 179.265 512.022L151.542 513.504C138.706 514.191 127.147 505.786 123.847 493.362L116.621 466.163C114.387 457.753 108.256 450.924 100.134 447.797L74.0384 437.751C62.0837 433.147 54.9722 420.818 56.9757 408.169L61.4037 380.208C62.7601 371.642 59.9426 362.946 53.8217 356.802L33.9166 336.822C24.8944 327.765 23.4117 313.645 30.3561 302.913L45.7229 279.166C50.4306 271.892 51.3824 262.807 48.2852 254.715L38.1607 228.263C33.5883 216.317 37.9759 202.8 48.6933 195.815L72.2253 180.479C79.5021 175.737 84.0706 167.799 84.5157 159.126L85.9635 130.917C86.6212 118.105 96.1595 107.501 108.833 105.494L136.338 101.137C144.951 99.7727 152.385 94.3553 156.321 86.5742L168.968 61.5704C174.778 50.0839 187.857 44.2552 200.285 47.6138L227.047 54.8462C235.491 57.1282 244.517 55.2038 251.295 49.6767L272.837 32.1103Z" fill="url(#paint0_linear_717_2893)"/>
</g>
<defs>
<filter id="filter0_d_717_2893" x="26" y="26" width="544" height="544" filterUnits="userSpaceOnUse" color-interpolation-filters="sRGB">
<feFlood flood-opacity="0" result="BackgroundImageFix"/>
<feColorMatrix in="SourceAlpha" type="matrix" values="0 0 0 0 0 0 0 0 0 0 0 0 0 0 0 0 0 0 127 0" result="hardAlpha"/>
<feOffset dx="8" dy="8"/>
<feGaussianBlur stdDeviation="4"/>
<feComposite in2="hardAlpha" operator="out"/>
<feColorMatrix type="matrix" values="0 0 0 0 0 0 0 0 0 0 0 0 0 0 0 0 0 0 0.25 0"/>
<feBlend mode="normal" in2="BackgroundImageFix" result="effect1_dropShadow_717_2893"/>
<feBlend mode="normal" in="SourceGraphic" in2="effect1_dropShadow_717_2893" result="shape"/>
</filter>
<linearGradient id="paint0_linear_717_2893" x1="98.6" y1="76.16" x2="419.36" y2="486.68" gradientUnits="userSpaceOnUse">
<stop stop-color="#FFD9A0"/>
<stop offset="1" stop-color="#FFE5D6"/>
</linearGradient>
</defs>
</svg>
