<svg width="27" height="25" viewBox="0 0 27 25" fill="none" xmlns="http://www.w3.org/2000/svg">
<path d="M13.752 1.17847L16.0981 8.10536C16.4099 9.02583 17.2747 9.64223 18.2444 9.64223H25.7321C25.8182 9.64223 25.8655 9.66676 25.8957 9.69023C25.932 9.71853 25.9664 9.76479 25.9857 9.82565C26.0049 9.88651 26.0031 9.9433 25.99 9.98592C25.9793 10.0209 25.9555 10.0669 25.8858 10.1156L19.9113 14.2797C19.0869 14.8543 18.7395 15.9038 19.0623 16.8569L21.3636 23.6513C21.3897 23.7285 21.3823 23.7785 21.3702 23.8133C21.3557 23.8555 21.3237 23.9028 21.2722 23.9412C21.2208 23.9796 21.1652 23.9976 21.1182 23.9998C21.0787 24.0016 21.0263 23.9939 20.9579 23.9462L14.7973 19.6524C14.0181 19.1093 12.9819 19.1093 12.2027 19.6524L6.04209 23.9462C5.97371 23.9939 5.92126 24.0016 5.88177 23.9998C5.83476 23.9976 5.77922 23.9796 5.72776 23.9412C5.67629 23.9028 5.64432 23.8555 5.62976 23.8133C5.61772 23.7785 5.61029 23.7285 5.63644 23.6513L7.93771 16.8569C8.26055 15.9038 7.91312 14.8543 7.08872 14.2797L1.11424 10.1156C1.04445 10.0669 1.02071 10.0209 1.00997 9.98592C0.996879 9.9433 0.995082 9.88651 1.01433 9.82565C1.03358 9.76479 1.06799 9.71853 1.10433 9.69023C1.13447 9.66676 1.18179 9.64223 1.26792 9.64223H8.75562C9.72528 9.64223 10.5901 9.02583 10.9019 8.10536L13.248 1.17847C13.2738 1.10229 13.3101 1.06606 13.3423 1.04444C13.3806 1.01868 13.4356 1 13.5 1C13.5644 1 13.6194 1.01868 13.6577 1.04444C13.6899 1.06606 13.7262 1.10229 13.752 1.17847Z" stroke="black" stroke-width="2"/>
</svg>
