<svg width="870" height="870" viewBox="0 0 870 870" fill="none" xmlns="http://www.w3.org/2000/svg">
<rect x="220" width="100" height="100" rx="10" fill="#232323"/>
<rect x="330" width="100" height="100" rx="10" fill="#232323"/>
<rect x="440" width="100" height="100" rx="10" fill="#232323"/>
<rect x="550" width="100" height="100" rx="10" fill="#232323"/>
<rect x="110" y="110" width="100" height="100" rx="10" fill="#232323"/>
<rect x="220" y="110" width="100" height="100" rx="10" fill="#232323"/>
<rect x="330" y="110" width="100" height="100" rx="10" fill="#232323"/>
<rect x="440" y="110" width="100" height="100" rx="10" fill="#232323"/>
<rect x="550" y="110" width="100" height="100" rx="10" fill="#232323"/>
<rect x="660" y="110" width="100" height="100" rx="10" fill="#232323"/>
<rect y="220" width="100" height="100" rx="10" fill="#232323"/>
<rect x="110" y="220" width="100" height="100" rx="10" fill="#F8F8F8"/>
<rect x="220" y="220" width="100" height="100" rx="10" fill="#FF2D2D"/>
<rect x="330" y="220" width="100" height="100" rx="10" fill="#FF2D2D"/>
<rect x="440" y="220" width="100" height="100" rx="10" fill="#F8F8F8"/>
<rect x="550" y="220" width="100" height="100" rx="10" fill="#232323"/>
<rect x="660" y="220" width="100" height="100" rx="10" fill="#FF2D2D"/>
<rect x="770" y="220" width="100" height="100" rx="10" fill="#FF2D2D"/>
<rect y="330" width="100" height="100" rx="10" fill="#F8F8F8"/>
<rect x="110" y="330" width="100" height="100" rx="10" fill="#F8F8F8"/>
<rect x="220" y="330" width="100" height="100" rx="10" fill="#232323"/>
<rect x="330" y="330" width="100" height="100" rx="10" fill="#FF2D2D"/>
<rect x="440" y="330" width="100" height="100" rx="10" fill="#F8F8F8"/>
<rect x="550" y="330" width="100" height="100" rx="10" fill="#232323"/>
<rect x="660" y="330" width="100" height="100" rx="10" fill="#FF2D2D"/>
<rect x="770" y="330" width="100" height="100" rx="10" fill="#232323"/>
<rect y="440" width="100" height="100" rx="10" fill="#232323"/>
<rect x="110" y="440" width="100" height="100" rx="10" fill="#F8F8F8"/>
<rect x="220" y="440" width="100" height="100" rx="10" fill="#FF2D2D"/>
<rect x="330" y="440" width="100" height="100" rx="10" fill="#232323"/>
<rect x="440" y="440" width="100" height="100" rx="10" fill="#F8F8F8"/>
<rect x="550" y="440" width="100" height="100" rx="10" fill="#F8F8F8"/>
<rect x="660" y="440" width="100" height="100" rx="10" fill="#232323"/>
<rect x="770" y="440" width="100" height="100" rx="10" fill="#FF2D2D"/>
<rect y="550" width="100" height="100" rx="10" fill="#232323"/>
<rect x="110" y="550" width="100" height="100" rx="10" fill="#F8F8F8"/>
<rect x="220" y="550" width="100" height="100" rx="10" fill="#FF2D2D"/>
<rect x="330" y="550" width="100" height="100" rx="10" fill="#FF2D2D"/>
<rect x="440" y="550" width="100" height="100" rx="10" fill="#232323"/>
<rect x="550" y="550" width="100" height="100" rx="10" fill="#F8F8F8"/>
<rect x="660" y="550" width="100" height="100" rx="10" fill="#FF2D2D"/>
<rect x="770" y="550" width="100" height="100" rx="10" fill="#FF2D2D"/>
<rect x="110" y="660" width="100" height="100" rx="10" fill="#232323"/>
<rect x="220" y="660" width="100" height="100" rx="10" fill="#232323"/>
<rect x="330" y="660" width="100" height="100" rx="10" fill="#232323"/>
<rect x="440" y="660" width="100" height="100" rx="10" fill="#232323"/>
<rect x="550" y="660" width="100" height="100" rx="10" fill="#232323"/>
<rect x="660" y="660" width="100" height="100" rx="10" fill="#232323"/>
<rect x="220" y="770" width="100" height="100" rx="10" fill="#232323"/>
<rect x="330" y="770" width="100" height="100" rx="10" fill="#232323"/>
<rect x="440" y="770" width="100" height="100" rx="10" fill="#232323"/>
<rect x="550" y="770" width="100" height="100" rx="10" fill="#232323"/>
</svg>
